<svg id="Component_38_9" data-name="Component 38 – 9" xmlns="http://www.w3.org/2000/svg" xmlns:xlink="http://www.w3.org/1999/xlink" width="117.965" height="73.221" viewBox="0 0 117.965 73.221">
  <defs>
    <clipPath id="clip-path">
      <rect x="-5" width="117.965" height="73.22" fill="none"/>
    </clipPath>
    <clipPath id="clip-path-2">
      <rect id="Rectangle_1868" data-name="Rectangle 1868" width="121.965" height="73.22" fill="none"/>
    </clipPath>
  </defs>
  <g id="Scroll_Group_8" data-name="Scroll Group 8" transform="translate(5)" clip-path="url(#clip-path)" style="mix-blend-mode: normal;isolation: isolate">
    <g id="Group_2325" data-name="Group 2325">
      <g id="Group_2324" data-name="Group 2324" clip-path="url(#clip-path-2)">
        <path id="Path_4319" data-name="Path 4319" d="M463.994,302.121c.14-.173.006-.335-.062-.488.108-.146.208-.3.308-.453a6.169,6.169,0,0,1,.193-1.3c.038-.159-.185-.153.023-.33.177-.141.082-.327.051-.488.093-.083.18-.172.27-.258a.133.133,0,0,0,0-.027c.007-.011.019-.021.026-.031a8.63,8.63,0,0,1,.386-1c.069-.148-.153-.178.089-.318.2-.112.145-.31.147-.477.091-.056.178-.118.269-.178,0-.007,0-.017,0-.025a.53.53,0,0,1,.064-.055,7.6,7.6,0,0,1,.45-.73c.022-.057.046-.114.066-.17a.471.471,0,0,0,.052,0l.014-.023c.1-.136-.113-.2.152-.3.221-.076.207-.283.241-.444.091-.037.18-.08.27-.119a9.19,9.19,0,0,1,.73-.8c.123-.119-.07-.214.207-.272.232-.04.259-.244.324-.4.154-.036.306-.077.459-.118.119-.063.26-.081.393-.161.171-.1.133-.143.253-.238a2.69,2.69,0,0,1,.523-.375,4.913,4.913,0,0,1,1.641-1.026c.16-.072.016-.224.3-.191.232.037.335-.147.458-.272.133.016.266.021.4.03a10.213,10.213,0,0,1,1.159-.375c.172-.047.061-.22.332-.139.221.072.36-.092.505-.195.119.033.244.058.365.089l.088-.02a6.155,6.155,0,0,1,1.246-.213c.055-.054.073-.119.247-.034.009.007.019,0,.028.009l.052,0c.178-.013.111-.2.355-.073.006,0,.011,0,.017,0l.083-.043c.048.022.1.043.15.065a1.8,1.8,0,0,0,.287-.122c.11.053.226.1.336.154.224-.009.467,0,.735.012.082-.041.1-.13.272-.006a.233.233,0,0,0,.063.028l.172.013c.158.016.155-.136.3-.059a.032.032,0,0,0,.017-.006c.053.038.109.07.163.107a.856.856,0,0,0,.438-.062c.068.052.144.1.214.148a9.448,9.448,0,0,1,1.223.242c.084-.017.122-.089.22-.013.052-.025.1-.039.2.072a.284.284,0,0,0,.141.091c.085,0,.174-.02.256-.026l.032.032c.038-.007.075-.01.111-.016.1.108.209.21.315.313.28.1.583.22.931.371.16.072.211-.123.347.1.107.189.331.153.513.166.066.1.136.2.205.294a9.348,9.348,0,0,1,1.029.607c.141.1.232-.09.319.156.067.2.3.2.472.247.066.163.138.326.213.486.213.172.432.364.683.6.121.118.245-.049.284.206.026.21.25.248.414.318.021.114.05.226.075.34a8.433,8.433,0,0,1,.722.9c.1.137.251-.008.236.25-.018.211.2.284.344.381,0,.08,0,.162,0,.242a7.43,7.43,0,0,1,.545,1.015c.066.047.153.031.146.146.054.021.1.046.06.186a.249.249,0,0,0,.008.157c.056.058.125.108.182.162,0,.015,0,.028-.008.042.028.023.057.046.08.069-.017.077-.028.155-.043.232a3.532,3.532,0,0,1,.3.811c-2.438-.024-4.893.327-7.321.3-2.1-4.339-9.969-4.808-12.931-.61a9.2,9.2,0,0,0-1.581,5.635c-1.483-.06-3.037.087-4.577-.084-.053-.182-.833.064-.834-.147-.237-.454.434-1.417.425-2.193,0-.16-.217-.112-.053-.323" transform="translate(-443.38 -243.437)" fill="#6d6f72"/>
        <path id="Path_4320" data-name="Path 4320" d="M477.279,141.121c.056-1.305.115-3.141.12-4.96,0-.414-.052-.638-.029-1.277,0-.019.079-.047.079-.418,0-.094-.085-.009-.054-.431-.011.172.08-.414.08-.414.025-.211.014-.508.078-.407,0-.68-.054-4.863.094-5.51s-.1-.982-.028-1.282a5.71,5.71,0,0,1,.153-.824,5.807,5.807,0,0,1-.092-1.289c0-1.2.085-2.85.123-4.228.009-.318-.069-.466-.042-.86a1.65,1.65,0,0,0,.079-.411c-.008.144-.094-.224-.052-.427.024-.14.1.124.129.021-.025-.231.118-.267.154-.553.132.023.017-.519.151-.508.021-.318.038-.637.041-.956.352-.471.274-1.22.471-1.754.218-.589.594-1.084.811-1.637a3.1,3.1,0,0,1,.146-.523c.159-.235.243-.152.318-.531,0,.006.132-.51.143-.522.132-.12.137-.575.292-1.048.014-.047.134-.044.163-.178.054-.278.047-.463.317-.532-.072-.235.276-.617.319-.8.2-.526.7-1.278.9-1.8.356-.619.716-1.238,1.093-1.847,1.915-3.09,3.367-5.662,5.489-8.613.527-.732.674-1.252,1.476-1.722,3.21-1.88,7.832-.806,11.349-.7,4.718.148,9.43.051,14.147.051,1.29,0,1.918-.411,2.011,1.086.1,1.851.1,3.7.121,5.552.02,1.556.083,3.112.167,4.668q-.171,1.532-.35,3.065c-.012.818-.021,1.654-.026,2.488,0,.667.049,1.028.023,2.06a1.458,1.458,0,0,0-.081.676,1.6,1.6,0,0,1,.052.655c0-.1-.082.71-.082.71-.028.343-.018.824-.08.664,0,1.1.021,7.85-.129,8.9a7.6,7.6,0,0,0,.031,1.829c.12-.088.242-.175.358-.267,0,.29,0,.579,0,.871-.014.636-.043,1.271-.061,1.907a2.489,2.489,0,0,1-.33.2q-.15.076-.308.139c-1.123-.007-2.257-.033-3.376.01-.174,0-.348-.01-.523-.016-.1-.041-.18-.092-.2-.157a5.273,5.273,0,0,0-.2-.661,2.661,2.661,0,0,0-.509-.78c-.06,0-.121,0-.182,0-.049-.039-.1-.079-.143-.119a.894.894,0,0,1-.5.061c-.061-.048-.126-.094-.185-.143l-.019.006c-.16-.105-.163.089-.344.064-.068-.01-.131-.017-.2-.024a.419.419,0,0,1-.071-.04c-.193-.167-.216-.055-.313,0a7.457,7.457,0,0,0-.845-.048c-.127-.071-.258-.137-.381-.213a1.873,1.873,0,0,1-.337.145c-.056-.03-.115-.058-.172-.089-.03.015-.063.033-.1.053-.007,0-.012,0-.019-.007-.278-.178-.207.068-.414.077l-.058,0c-.011,0-.022,0-.033-.01-.2-.119-.22-.034-.285.029a6.469,6.469,0,0,0-1.445.22l-.1.024c-.138-.044-.28-.085-.417-.129-.171.125-.337.327-.589.226-.308-.117-.188.11-.388.161a11.081,11.081,0,0,0-1.35.433c-.153-.019-.307-.033-.459-.057-.145.154-.272.385-.538.33-.325-.059-.165.142-.353.23a5.507,5.507,0,0,0-1.93,1.245,2.872,2.872,0,0,0-.618.457c-.145.117-.1.167-.3.295-.155.1-.319.113-.459.188-.179.045-.356.093-.534.131-.08.2-.12.456-.387.5-.324.059-.105.192-.251.338a11.853,11.853,0,0,0-.874.993c-.1.046-.208.1-.315.14-.047.208-.038.471-.3.559-.309.115-.067.206-.187.377a.277.277,0,0,1-.019.029c-.022,0-.035,0-.059,0-.023.07-.054.143-.08.213a9.94,9.94,0,0,0-.549.916c-.023.022-.056.046-.076.067,0,.011,0,.022,0,.032-.106.073-.21.149-.318.218-.007.212.047.467-.189.6-.282.171-.031.216-.114.406a11.342,11.342,0,0,0-.483,1.261.281.281,0,0,0-.031.039c0,.011,0,.024,0,.033-.107.107-.211.215-.32.318.03.21.131.452-.079.626-.247.216.009.218-.04.42a12.265,12.265,0,0,0-.24,1.237.067.067,0,0,0-.015.025c-.046.2-.1.4-.147.6-.08.124-.16.246-.245.365.024.064.054.13.08.2a.078.078,0,0,0-.011.041v.368c-.005.008-.008.016-.015.024s-.022.032-.032.047a30.607,30.607,0,0,0-3.373.09c-.205,0-.524,0-.9,0a1.2,1.2,0,0,1-.268,0h-.005c-.3,0-.624,0-.943,0a3.191,3.191,0,0,1-.423.016c0-.008,0-.015,0-.024a8.759,8.759,0,0,1-1.5-.1c-.485-.145-.753.1-.98.027a3.4,3.4,0,0,1-.626-.156,3.451,3.451,0,0,1-.987.091c-.918-.007-2.175-.091-3.228-.132a6.31,6.31,0,0,1-.657.041,1.008,1.008,0,0,0-.313-.08c.111.009-.172.094-.328.052-.105-.024.1-.1.021-.13a3.82,3.82,0,0,1-.851.093c.052-.343-.1.1-.106-.254-.065.008.042-.771-.019-.768-.028,0-.047.028-.072.041" transform="translate(-472.71 -78.711)" fill="#73c4b8"/>
        <path id="Path_4321" data-name="Path 4321" d="M717.723,357.613c.015.008.028.02.043.02l.138.006a.775.775,0,0,1,.109.085c.088.04.128-.011.158-.081a2.122,2.122,0,0,0,.216-.013.6.6,0,0,1,.173.2c.051,1.639.042,3.307.069,4.933,0,.114-.023.2-.076.227a.767.767,0,0,1,.069.242,9.271,9.271,0,0,0-2.159.147.2.2,0,0,0-.149.112.183.183,0,0,0-.1-.043,9.3,9.3,0,0,1-1.012-.04c-.019-.01-.038-.023-.057-.033,0-1.036-.054-3.357-.065-4.308,0-.052,0-.1,0-.152.072.03.045-.053,0-.159,0-.071,0-.14.007-.213.005-.272,0-.549-.014-.823a17.876,17.876,0,0,1,2.648-.11" transform="translate(-711.548 -300.154)" fill="#73c4b8"/>
        <path id="Path_4322" data-name="Path 4322" d="M734.139,200.389a.3.3,0,0,0-.058-.148c0-.049,0-.1-.007-.149-.038-.114-.071-.244-.108-.407-.011-.051-.038-.041-.031-.1a.286.286,0,0,0-.043-.15c0-.03.005-.059.007-.088l0-.008v-.009c-.02-.094-.036-.2-.053-.32-.007-.047-.036-.051-.022-.1a.289.289,0,0,0-.03-.15c.006-.02.01-.044.014-.065a.016.016,0,0,0,0-.007c0-.006,0-.013,0-.018-.007-.073-.014-.152-.018-.24,0-.018-.006-.035-.01-.053h.007a.023.023,0,0,1,0-.009c0-.044-.033-.057-.011-.1s0-.092-.016-.144c.007-.013.014-.031.021-.045,0-.08,0-.166.007-.268,0-.039-.029-.064,0-.09s.007-.082,0-.133a.425.425,0,0,0,.043-.05c.008-.023.023-.032.032-.061a.412.412,0,0,0,.006-.08.592.592,0,0,1,.026-.131.929.929,0,0,1,.094-.366c.012-.026-.021-.069.017-.066s.026-.058.028-.1c.019,0,.035,0,.052,0a.808.808,0,0,1,.1-.15c.016-.019-.015-.068.026-.052s.035-.039.042-.075c.016.007.034.01.052.016s.006-.006.01-.007a.328.328,0,0,1,.128-.1c0-.019,0-.04.027-.018h0a.01.01,0,0,0,.007,0c.019-.008-.007-.065.035-.032,0,0,0,0,0,0a.089.089,0,0,0,0-.017.172.172,0,0,0,.026.015.2.2,0,0,0,.021-.043c.019.013.038.023.056.036a.33.33,0,0,1,.089-.017c.006-.017,0-.043.033-.01a.055.055,0,0,0,.01.008l.022,0c.02,0,.006-.046.03-.028,0,0,0,0,0,0l.032.029c.021.007.033-.018.046-.033.013.014.027.027.04.039a.645.645,0,0,1,.173.04c.007-.009,0-.033.024-.01,0-.01.008-.016.032.016a.054.054,0,0,0,.027.024.172.172,0,0,0,.027-.017l.006.01.013-.008c.024.032.046.059.069.088.042.021.092.051.15.087.027.019.013-.046.052.021s.056.036.079.035c.017.03.035.057.054.085a2.182,2.182,0,0,1,.184.157c.028.025.019-.033.054.039a.089.089,0,0,0,.083.061c.024.05.049.1.073.145.044.048.089.1.143.165.028.033.024-.023.054.055a.138.138,0,0,0,.083.086c.014.034.028.069.044.1.05.067.107.149.175.256.026.038.03-.011.054.068a.188.188,0,0,0,.08.108c.008.026.016.051.023.075.052.079.1.175.169.3.013.013.02,0,.032.04.009.006.017.012.026.056a.274.274,0,0,0,.016.047c.013.017.027.031.04.047a.08.08,0,0,0,0,.013.116.116,0,0,1,.017.017c.006.025.012.049.019.073a3.936,3.936,0,0,1,.2.434c.021.046.038.017.046.092a.3.3,0,0,0,.067.14c0,.042.012.085.018.126.027.074.055.155.086.249a.068.068,0,0,1,.012.034c.017.049.036.029.038.1a.2.2,0,0,0,.008.045l.013.026s0,.011,0,.013c.01.022.023.045.034.065s0,.063.006.1c.031.1.06.212.092.346.013.051.039.04.032.1a.353.353,0,0,0,.045.152c0,.023,0,.045,0,.065.025.1.045.219.068.36.008.05.036.05.022.1a.286.286,0,0,0,.033.151,1.536,1.536,0,0,0-.033.165.323.323,0,0,1,.022.08.47.47,0,0,1-.01.124.868.868,0,0,0,.011.1c0,.019,0,.04,0,.058a2.041,2.041,0,0,1,.014.474c0,.041.031.063,0,.09s0,.085,0,.134c-.014.017-.029.035-.043.054-.007.064-.016.131-.031.207-.006.035.027.068-.006.081s-.014.073-.012.12c-.014.007-.027.017-.041.025a2.045,2.045,0,0,1-.067.212c-.012.028.021.069-.017.068s-.024.058-.026.1a.192.192,0,0,0-.036,0,.9.9,0,0,1-.1.169c-.015.02.016.068-.025.054s-.033.041-.04.079a.473.473,0,0,0-.067-.019.509.509,0,0,1-.142.109c-.021.009.007.068-.035.035s-.041.02-.054.049c-.031-.021-.064-.043-.094-.06a.07.07,0,0,1-.014.021.031.031,0,0,1-.032,0l-.006,0h0a.006.006,0,0,0,0,0,.008.008,0,0,1-.006,0,.129.129,0,0,1-.047-.02c-.01,0-.012.012-.024.014l-.037.008c-.013.007-.027.011-.039.019,0-.011-.007-.014-.011-.021a.09.09,0,0,1-.016-.009.149.149,0,0,1-.083-.047h0a.037.037,0,0,0-.007-.01l-.013.012a.033.033,0,0,1-.016.02l-.006,0a.213.213,0,0,1-.017.018.555.555,0,0,1-.078-.071h-.007a.021.021,0,0,0,0,.01l-.006-.013c-.013,0-.015.006-.032,0a.365.365,0,0,1-.067-.02.048.048,0,0,1-.018,0l-.092-.049h0a.022.022,0,0,1-.01,0,.253.253,0,0,0-.032.012.4.4,0,0,1-.058-.065.548.548,0,0,0-.119-.038.674.674,0,0,0-.022-.066.047.047,0,0,1-.018-.014.356.356,0,0,1-.13-.075H735.9a.306.306,0,0,1-.021-.029c-.037-.032-.074-.067-.118-.109-.007,0-.015-.012-.022-.017s-.014.021-.039-.028c-.022-.019-.046-.042-.072-.067a.017.017,0,0,1-.011,0,.112.112,0,0,1-.01-.018c-.041-.043-.082-.092-.132-.148-.027-.033-.023.024-.054-.053a.134.134,0,0,0-.083-.082c-.032-.075-.063-.15-.1-.222a.083.083,0,0,1-.041-.032l-.007-.01s0,0,0,0,0-.006,0-.01c-.018-.031-.031-.062-.047-.1-.042-.053-.083-.1-.12-.145,0-.012,0-.02,0-.031a.7.7,0,0,1-.085-.184l-.019-.019a.13.13,0,0,1-.029-.026l-.007-.009a.285.285,0,0,1-.026-.025.948.948,0,0,1-.038-.1l0,0c-.007-.016-.015-.036-.022-.055s-.021-.031-.039-.062c-.027-.05-.054-.094-.081-.152a.184.184,0,0,0-.015-.025.066.066,0,0,0,0-.015c-.009-.024-.019-.054-.028-.086a.246.246,0,0,1-.063-.076.919.919,0,0,1-.045-.135.058.058,0,0,1-.011-.013l-.012-.043a.468.468,0,0,1-.031-.058,1.549,1.549,0,0,1-.074-.176,3.047,3.047,0,0,1-.212-.539c-.016-.049-.038-.028-.039-.1" transform="translate(-733.756 -164.718)" fill="#5a5b5e"/>
        <path id="Path_4323" data-name="Path 4323" d="M520.353,129.193c.067-.338.409-.545.754-.752a.382.382,0,0,1-.135-.361c.209-.008.157-.141.2-.231a5.764,5.764,0,0,1,.368-.8c.1-.143.024-.5.139-.9.007-.015.206-.026.207-.119a1.807,1.807,0,0,1,.367-.8c.028-.045.207,0,.21-.118,0-.03-.029-.085-.01-.114.055-.079.068-.438.133-.657.143-.465.524-.818.653-1.334.009-.035-.066-.2-.02-.226.027-.011.206.01.218-.006.034-.04-.078-.2-.017-.225.349-.161-.177-.524.161-.68a3.853,3.853,0,0,0,.284-.74,10.736,10.736,0,0,1,1.158-1.72c.027-.04-.078-.2-.02-.226a.915.915,0,0,0,.4-.346c.027-.04-.073-.2-.019-.225.024-.01.212.006.22,0,.149-.24.085-.483.168-.567.034-.035.379.018.431-.011.186-.1.028-.333.179-.455.132-.1.617-.127.622-.352a2.712,2.712,0,0,1,.415-.236c.11-.058.548-.062.641-.125a4.544,4.544,0,0,1,1.277-.255c.381-.065.819-.219,1.062-.249.476-.054.948.055,1.516-.033.106-.015.237-.12.206-.117.355-.02.375.107.658.1.186,0,.325-.136.64-.126-.066,0,.148.1.223.108.24.026.565-.035.744,0a.874.874,0,0,1,.518.08c.252.112.283.081.7.027,0-.051-.007-.1-.013-.153a.918.918,0,0,0,.192.08c.022-.027.058-.047.168-.035.03,0,.026.045.066.074.433.022.888-.182,1.307-.155.008,0,.023.026.056.053.1,0,.266.023.639.053-.074-.006.12-.145.211-.089.407.242.154.124.831.009.173-.031.443.039.619.009.092-.018,0-.084.209-.091.358-.012.87,0,1.245.014.17,0,.2.1.407.1-.023,0,.082-.089.209-.091.052,0,.344.133.412.1a1.185,1.185,0,0,1,.623-.087c.411.016.56.1.825.1.5.007,1.157-.1,2.074-.066.007,0,.017.108.2.094.044,0,.025-.094.217-.091a4.011,4.011,0,0,1,.411.007c.088.011.253.1.2.1a5.285,5.285,0,0,1,.623-.087c.168.006.153.057.174.081-.238,3.8-.5,5.518-.238,8.217,0,.028.009.057.011.086-.224,2.265-.42,4.53-.481,6.8a7.465,7.465,0,0,1-1.008.057c-.213.014-.142.108-.207.116-.125.017-.537-.114-.874-.091a5.826,5.826,0,0,0-.641.126c-.524.061-1.09-.345-1.591-.3a4.137,4.137,0,0,1-1.289.141c-.088-.009-.29-.107-.227-.11-.179,0-.2.129-.421.122-.336-.007-.76-.108-1.094-.088-.493.032-.893.2-1.277.254-.343.045-.737-.018-1.083.024a3.187,3.187,0,0,1-.639.127c.042,0-.1-.107-.222-.107a6.344,6.344,0,0,1-.66-.1c-.606-.04-1.376.141-1.739-.076-.217-.13-.1,0-.433.011a4.924,4.924,0,0,1-.841.081,3.321,3.321,0,0,0-1.316-.2c-.039,0-.514.2-.64.126-.325-.191-.285.022-.65.014a.26.26,0,0,0-.224-.108,10.17,10.17,0,0,0-1.323-.036,8.872,8.872,0,0,1-1.288.142c-.831-.037-1.148.251-1.954.081-.4-.081-.76-.148-1.1-.2a6.706,6.706,0,0,1-1.074-.034c-.234.106-1.914-.086-2.237-.021-1.592-.3-.664-1.076-.4-2.192" transform="translate(-509.06 -97.488)" fill="#fff"/>
        <path id="Path_4324" data-name="Path 4324" d="M717.786,334.54c.034.012.064.014.078-.009a.2.2,0,0,0,.028-.007c.086.1.37-.04.4.121.011-.014.033-.019.049-.029a9.173,9.173,0,0,1-.076,1.918.208.208,0,0,0,.1.239c-.023.455-.054.909-.068,1.363-.5-.007-1.389.006-1.763,0l-.062,0c.016-.078-.024-.047-.073,0-.1,0-.194-.011-.29-.012-.051-1.206-.008-2.412.008-3.618a7.062,7.062,0,0,0,1.667.041" transform="translate(-711.451 -280.758)" fill="#fdf6e0"/>
        <path id="Path_4325" data-name="Path 4325" d="M717.571,359.528a.151.151,0,0,0,.078,0l.028,0c.086.033.37-.014.4.042a.4.4,0,0,1,.049-.01c-.012.22.07.44-.076.658-.026.038.027.067.1.082-.023.156-.054.311-.068.467-.5,0-1.389,0-1.763,0h-.062c.016-.027-.024-.016-.073,0l-.29,0a7.6,7.6,0,0,1,.008-1.24c.558.014,1.119.045,1.667.014" transform="translate(-711.201 -301.754)" fill="#fdf6e0"/>
        <path id="Path_4326" data-name="Path 4326" d="M715.428,323.6c.132,0,.265-.007.4-.016.069.019.167.074.141.023.347,0,1.357.035,1.873.043,0,.011,0,.022,0,.033-.03.5-.065.99-.1,1.486-.016-.006-.036-.008-.046-.014-.036.075-.368-.011-.423.055,0-.064-.194.02-.232-.028-.166.006-.179.065-.394.044a5.493,5.493,0,0,0-.724-.024l-.018.017c-.057,0-.112-.006-.168-.007a.262.262,0,0,0-.059-.01.5.5,0,0,1-.246-.059.237.237,0,0,0,.02-.1c-.006-.482-.023-.962-.03-1.443" transform="translate(-710.821 -271.599)" fill="#ecac03"/>
        <path id="Path_4327" data-name="Path 4327" d="M637.983,361.98c-.045,0-.089,0-.145,0l-.482,0-.38-.017a3.83,3.83,0,0,0-.558.012h-.755c-.212-.009-.418-.022-.592-.039a3.257,3.257,0,0,1,.028-.9c.024-.02-.125-.054.062-.058-.11-.011.037-.009-.012-.028,2.53.029,5.055.052,7.6.051.223,0,.391-.008.531-.018.108,0,.226.009.367.009,1.186,0,2.366.013,3.549.023l.2.007a6.13,6.13,0,0,0-.027.739c-.008.009-.012.018-.021.028-.246-.007-.157.008-.024.028a.322.322,0,0,0-.036.039.143.143,0,0,0,0,.151c-3.077.008-6.2,0-9.3-.02" transform="translate(-627.45 -302.954)" fill="#fdf6e0"/>
        <path id="Path_4328" data-name="Path 4328" d="M719.457,228.761a2.913,2.913,0,0,0,.235.6,2.764,2.764,0,0,0,1.882,1.623,4.13,4.13,0,0,0,1.2.136v.254l-.007.012a3.888,3.888,0,0,1-2.53-.535,3.106,3.106,0,0,1-1.251-1.78c-.008-.086-.012-.168-.013-.246.072-.539.34-.758.483-.062" transform="translate(-716.322 -191.641)" fill="#5a5b5e"/>
        <path id="Path_4329" data-name="Path 4329" d="M0,335.619c0-.3.007-.594.008-.89a34.874,34.874,0,0,0,.13-7.135c.019-.612.033-1.228.047-1.841.017-.013.037-.024.055-.038.22,0,.417,0,.648-.009.061,0,.131.291,1.465.238a3.8,3.8,0,0,1,1.589-.258c.9,0,2.158-.048,3.02-.014.66.021,1.869.232,1.483.235,1.214-.01,2.491-.281,4.613-.273,1.564-.008.942.216,1.465.232,1.328.032,1.616-.26,1.563-.261,1.444.033,2.284.21,4.523.219,6.352.027,13.424-.664,17.872-.161l3.234-.055c4.569-.423,10.032-.532,14.858-.644,6.364-.148,17.79-.077,24.578-.132h.066l1.023-.013s0,0-.006.007h.046c-.056,1.513-.022,3.021.035,4.531,0,.317.006.635.009.952-.009.1-.018.2-.027.3l.014.8a.524.524,0,0,0-.043.165,16.393,16.393,0,0,0-.059,3.507.63.63,0,0,0,.027.116c-.039.026-.083.052-.12.081-.221,0-.417,0-.649.01-.06,0-.13-.291-1.465-.239-.317.008-5,.253-6.409.259-.9,0-2.158.048-3.02.014-.659-.021-1.869-.232-1.484-.235-1.215.008-2.49.28-4.613.273-1.564.007-.94-.217-1.465-.232-1.328-.033-1.614.259-1.562.26-1.444-.033-2.284-.21-4.525-.218-6.352-.027-13.423.664-17.872.159-1.074.021-2.151.038-3.234.055-4.569.423-10.034-.014-14.861.1-6.363.147-12.97.076-19.758.131H1.135l-1.022.012s0,0,.007-.008c-.04,0-.08,0-.119,0" transform="translate(39.64 -272.633)" fill="#6d6f72"/>
        <path id="Path_4330" data-name="Path 4330" d="M77.58,209.956c-.027.031.018.128,0,.16a1.807,1.807,0,0,0-.041.346h-.182c0,.006,0,.011,0,.018l-.137-.007c-.044.015-.086.032-.129.044-.1-.017-.2-.036-.3-.053l-.584,0h-.111a.481.481,0,0,1-.237.033,1.152,1.152,0,0,1-.235-.039c-.727-.01-6.27-.016-7-.01l-.46,0-.049,0c-.262,0-.524-.007-.8-.01H67.3l-.066.012c-.074.006-.143,0-.214,0L67,210.5l-.327-.017-.266-.016a.294.294,0,0,0-.246.087c-.083,0-.164.01-.245.012-.14-.032-.286-.077-.437-.115-.187,0-.355,0-.512,0h-.2l-.488,0a.425.425,0,0,1-.079,0l-.206,0c-.693.006-1.117.011-1.424-.014H62.5c-.307.008-.552.011-.75.008a1.667,1.667,0,0,1-.176.007.424.424,0,0,1-.068-.01l-.115,0-.637,0-.834,0-.27,0c-.108,0-.208,0-.305,0-.053,0-.1,0-.145,0-.109,0-.236.007-.375.007-.048,0-.1,0-.148,0-.129,0-.3-.008-.459-.019q-.851-.005-1.712-.006c-.426,0-.838.006-1.1.013a4.665,4.665,0,0,1-.517-.013H53.775l-.1,0h0c-.107.006-.251.012-.431.017-.137.01-.289.013-.44.011h-.244l-.094,0c-.414,0-.924.006-1.422.012s-.981.009-1.38.008q-.18,0-.337-.018l-.284,0c-.554,0-.863,0-1.085-.024-.411,0-.879,0-1.261.007a.555.555,0,0,1-.192-.01c-.108,0-.229,0-.387,0s-.348,0-.549-.013c-.223.008-.6.043-.828.034l-.007,0c-.078,0-.15,0-.185,0a1.661,1.661,0,0,1-.272-.026h-.057c-.077,0-.143,0-.194,0s-.116,0-.175.007c-.016.024-.047.039-.113.028,0-.01-.009-.019-.014-.027-.416,0-.668,0-.877-.01l-.856.008h0c-.111,0-.251.006-.4,0-.354,0-.68.006-.928,0-.14,0-.278-.007-.4-.018h-.027l-.5,0c-.267.009-.532.032-.675.029h-.078c-.1,0-.1-.026-.158-.033H38.68c-.347.012-.857.052-1.221.025a2.655,2.655,0,0,1-.293-.02c-.236,0-.416,0-.561,0-.079,0-.158,0-.241,0h-.178c-.118,0-.26.012-.453,0-.042,0-.081,0-.125,0-.314,0-.66,0-.986.008-.509.006-.985.012-1.34.009-.082,0-.166,0-.245-.009-.188,0-.38,0-.576,0-.1,0-.2,0-.3,0-.144,0-.27.009-.386.012-.022,0-.045,0-.069,0h-.369l-.074,0c-.4,0-.827,0-1.17.006a.861.861,0,0,1-.219-.017c-.721,0-1.367,0-1.95,0-.123,0-.253,0-.382,0l-.13,0c-.059,0-.115,0-.172,0h-.007c-.1,0-.179,0-.231,0h-.053c-.122,0-.251,0-.42,0-.091,0-.2,0-.316,0-.232,0-.471,0-.708.008-.507.006-.987.011-1.339.008-.1,0-.205-.006-.3-.013l-.684,0c-.419.008-.754.029-.932.014-.409,0-.88,0-1.27.008a1.367,1.367,0,0,1-.255-.017h-.015c-.164.012-.373.019-.649.015-.106,0-.213-.006-.311-.014h-.062c-.6,0-1.145,0-1.661,0-.269.016-.678,0-1.072,0-.178,0-.485.007-.566.011s-.179.006-.272.007l-1.046-.006h-.12l-2.107-.013c-.078,0-.159.007-.242.007H10.612c-.12,0-.24-.006-.347-.013h-.031a1.691,1.691,0,0,1-.194.011c-.021,0-.041,0-.065,0l-.178,0c-.155.006-.41.011-.655.006l-.18,0H8.877c-.489.006-.96.011-1.307.009-.08,0-.154,0-.226-.008-.791,0-1.476,0-2.068-.007-.2.008-.41.008-.609,0H4.4c-.1.008-.223.013-.345.014-.869.006-1.459,0-1.888-.009l-.432,0c-.159,0-.3,0-.407,0-.022,0-.049,0-.07,0-.276.006-.5.01-.9-.007H.1l-.1.006a2.7,2.7,0,0,1,.078-.318.992.992,0,0,0,.015-.34.2.2,0,0,0,.017-.059c0-.027,0-.057,0-.087A.125.125,0,0,0,.1,209.6H.107a.162.162,0,0,1,0-.019c0-.041.006-.081.009-.122a6.993,6.993,0,0,0,.019-.745c0-.049,0-.1,0-.144,0-.006,0-.011,0-.015.005-.083.013-.165.015-.25,0-.045,0-.083,0-.124a.727.727,0,0,1-.01-.08.277.277,0,0,1,.01-.1c0-.067,0-.126-.006-.173a1.45,1.45,0,0,1,0-.265c0-.021,0-.04,0-.064,0-.046,0-.1-.006-.154l0-.088a1.229,1.229,0,0,1,.021-.446v-.02a1.3,1.3,0,0,1-.01-.3c-.017-.006-.035-.012-.055-.017,0-.044-.016-.086-.022-.129.022-.03.052-.059.082-.091v-.016c0-.1,0-.191,0-.26a.859.859,0,0,1-.008-.086.263.263,0,0,1,.008-.094.4.4,0,0,1,0-.046.71.71,0,0,1-.012-.119.442.442,0,0,1,0-.045.7.7,0,0,1,.03-.145c0-.178.007-.357.008-.537,0-.133-.008-.264-.019-.346a.325.325,0,0,1,.018-.163s0,0,0-.006v-.016c0-.11,0-.219,0-.327a.157.157,0,0,1,0-.03h0a1.009,1.009,0,0,1-.022-.135.314.314,0,0,1-.018-.137c0-.025,0-.052,0-.075v-.031c0-.128-.007-.29-.017-.446s-.015-.307-.012-.432a.336.336,0,0,1,.027-.107l0-.088a1.046,1.046,0,0,1,.035-.342c0-.128,0-.274-.011-.4-.016-.029,0-.039.018-.059s0-.072,0-.12a.617.617,0,0,1,.018-.174c-.011-.07-.067-.186-.05-.259h0a.441.441,0,0,1,0-.06.14.14,0,0,1,.037-.085c0-.005,0-.013,0-.018,0-.025,0-.045,0-.061a.277.277,0,0,1-.011-.074,1.2,1.2,0,0,1,.018-.294c0-.088-.01-.179-.014-.27a.568.568,0,0,1-.008-.127c-.006-.111-.009-.213-.006-.291a.352.352,0,0,1,.027-.124v-.008c0-.071,0-.12,0-.158a1.046,1.046,0,0,1-.043-.213.112.112,0,0,1,0-.024c0-.032.04-.029.051-.05v-.046a.832.832,0,0,1-.037-.381c-.022-.041.031-.039.027-.092,0-.075,0-.13,0-.176a.512.512,0,0,1,0-.077.276.276,0,0,0,0-.054A.363.363,0,0,1,.18,198.4a.288.288,0,0,1,.006-.037c0-.1-.008-.208-.014-.31-.009-.161-.017-.309-.012-.42a.292.292,0,0,1,.012-.079c0-.058,0-.116.006-.18a.306.306,0,0,1,0-.093c-.006-.044-.013-.085-.019-.121a.119.119,0,0,0,0-.022.251.251,0,0,1,0-.065.357.357,0,0,1,0-.051.127.127,0,0,1,0-.024c0-.124,0-.259-.01-.366-.018-.035.012-.039.024-.069,0-.225,0-.429.006-.61a.3.3,0,0,1,0-.121.358.358,0,0,0,0-.04.445.445,0,0,1,0-.055h0a.644.644,0,0,1,0-.071.116.116,0,0,1,0-.018,1.254,1.254,0,0,1-.007-.132c0-.028,0-.063.007-.1,0-.073-.007-.148-.012-.22-.008-.16-.017-.311-.013-.421a.327.327,0,0,1,.019-.1c0-.035,0-.068,0-.1-.046-.008-.072-.026-.051-.061l.052-.009c0-.014,0-.028,0-.042a.932.932,0,0,1-.023-.292c0-.13,0-.277-.01-.4-.02-.037.018-.041.025-.08v0a.527.527,0,0,1-.022-.2.361.361,0,0,1,.02-.1c0-.007,0-.013,0-.019,0-.188,0-.359,0-.521a2.258,2.258,0,0,1,0-.334c0-.058-.011-.153-.015-.178a.323.323,0,0,1-.011-.086l.009-.33c0-.009,0-.02,0-.029a.028.028,0,0,1,0-.007l.018-.66a.336.336,0,0,1-.01-.077c0-.072,0-.139,0-.207a.546.546,0,0,1-.058-.052,24.393,24.393,0,0,0-.022-3.128.835.835,0,0,0,.083-.108v-.04a.094.094,0,0,1,0-.021.878.878,0,0,1,.008-.283c0-.02,0-.051,0-.081,0-.01-.006-.021-.009-.03.073,0,.147,0,.219.008v0c.769.012,1.535.018,2.307.012.152,0,.3,0,.456,0h.049c.26,0,.518.008.791.01h.383l.263-.006c.1,0,.2,0,.3.006.217,0,.4,0,.553,0,.333,0,.589-.006.832,0h.2c.147,0,.3,0,.488,0l.278,0c.688-.007,1.11-.011,1.416.013h.062c.519-.014.864-.012,1.1,0H10.5c.322,0,.6,0,.827,0,.106,0,.2,0,.268-.006.107,0,.206,0,.3.006h.142c.111,0,.236-.008.375-.008h.146c.131,0,.295.008.458.021l1.7.006c.425,0,.833-.006,1.1-.014a4.964,4.964,0,0,1,.514.013l.021,0h1.086c.031,0,.062,0,.093,0h0c.1-.006.251-.012.428-.016.136-.01.285-.013.437-.011l.244,0h.093c.409,0,.917,0,1.412-.011s.976-.01,1.371-.008q.178,0,.334.018l.283,0c.551,0,.857.006,1.076.025.411,0,.873,0,1.254-.008a.609.609,0,0,1,.191.012h.384c.145,0,.346,0,.546.01.22-.007.594-.043.823-.032h0l.185,0a1.553,1.553,0,0,1,.268.025h.059l.193,0c.08,0,.16-.008.242-.007.448,0,.712,0,.928.01l.851-.008h0c.112,0,.248-.007.4,0,.352,0,.674-.007.923,0,.138,0,.275.008.395.018h.025c.224,0,.375,0,.5,0,.265-.01.529-.033.673-.029h.075c.1,0,.1.026.156.033h.146c.343-.012.849-.051,1.209-.025.132-.014.124.021.292.019.236,0,.413,0,.556,0,.079,0,.159,0,.239,0h.177c.118,0,.256-.011.45,0l.123,0,.982-.009c.506-.006.977-.012,1.328-.009.085,0,.167,0,.246.009.184,0,.378,0,.571,0,.1,0,.2,0,.3,0,.141,0,.267-.008.383-.013l.068,0h.2c.058,0,.1,0,.164,0l.072,0c.4,0,.825,0,1.166-.008a.726.726,0,0,1,.214.019c.715,0,1.357,0,1.937,0,.123-.006.252-.006.379,0l.131,0c.058,0,.115,0,.171,0h.288l.417,0,.313,0c.23,0,.469,0,.7-.007.5-.007.98-.013,1.333-.01.1,0,.2.006.3.013l.678,0c.417-.008.749-.031.926-.015.406,0,.875,0,1.262-.007a1.144,1.144,0,0,1,.253.016h.016c.164-.012.37-.018.644-.015.106,0,.214.006.311.014H51.3c.594,0,1.137,0,1.65,0,.268-.015.674,0,1.066,0,.176,0,.483-.007.562-.012s.177-.006.27-.007l1.04.007h.12l2.092.014c.075,0,.159-.007.24-.007h1.976c.116,0,.237,0,.344.013h.031a1.554,1.554,0,0,1,.192-.01c.021,0,.042,0,.064,0l.177,0c.153-.007.407-.013.651-.008h.26c.489-.006.955-.012,1.3-.007.078,0,.152,0,.222.006.788,0,1.47,0,2.057.007a6.043,6.043,0,0,1,.606,0h.262c.1-.008.223-.014.344-.014.865-.006,1.45,0,1.878.007l.429.006c.157,0,.291,0,.4,0H69.6c.275-.007,5.321-.008,5.714.007h.255a3.95,3.95,0,0,1,.443-.013h.3c0-.008-.006-.018-.009-.027.158,0,.316.016.475.024s.341.009.511,0l.048,0h.105a.007.007,0,0,1,0,.006c.042,0,.081,0,.121-.006a6.8,6.8,0,0,0-.019.726c0,.049,0,.1,0,.144a.109.109,0,0,0,0,.015c-.006.082-.012.162-.015.248,0,.044,0,.082,0,.12s.009.053.01.083a.29.29,0,0,1-.009.1c0,.068,0,.125.007.173a1.655,1.655,0,0,1,0,.264c0,.02,0,.04,0,.063,0,.047,0,.1,0,.155l0,.086a1.224,1.224,0,0,1-.02.447v.019a1.143,1.143,0,0,1,0,.346c0,.074,0,.144,0,.2,0,.1,0,.191.005.26,0,.033.006.063.008.084a.409.409,0,0,1-.008.1c0,.018,0,.032,0,.045a.727.727,0,0,1,.011.118c0,.014,0,.031,0,.046a.956.956,0,0,1-.031.144c0,.148-.006.3-.008.447a.435.435,0,0,0,.083.03.663.663,0,0,0,.023.129c-.029.034-.065.072-.1.108,0,.063.007.12.013.164a.339.339,0,0,1-.016.162l0,.006v.016c0,.109,0,.218,0,.326,0,.011.005.019.005.03h0a1.18,1.18,0,0,1,.023.133.343.343,0,0,1,.016.139c0,.024,0,.05,0,.077V193c0,.127.006.287.016.445s.015.306.013.431a.321.321,0,0,1-.027.1l0,.09a1.066,1.066,0,0,1-.036.34c0,.128.005.274.012.393.016.031,0,.04-.018.06,0,.035,0,.072,0,.121a.663.663,0,0,1-.017.171c.01.071.066.188.048.26l0,0a.507.507,0,0,1,0,.058c0,.039-.022.058-.039.083a.149.149,0,0,0,0,.019c0,.023,0,.044,0,.06a.253.253,0,0,1,.01.076,1.17,1.17,0,0,1-.017.292c0,.088.009.179.014.268h0a.537.537,0,0,1,.007.124c.006.11.01.213.006.291a.347.347,0,0,1-.027.125v.007c0,.071,0,.12.005.157a1.172,1.172,0,0,1,.044.212.134.134,0,0,1,0,.023c0,.032-.04.031-.051.049v.046a.827.827,0,0,1,.036.38c.023.042-.031.037-.028.092,0,.073,0,.131,0,.177a.516.516,0,0,1,0,.074c0,.017,0,.036,0,.055a.412.412,0,0,1,.007.143c0,.013,0,.026-.008.039,0,.1.01.207.015.307.008.159.017.31.013.419a.319.319,0,0,1-.013.078c0,.058,0,.118-.005.18a.392.392,0,0,1,0,.093c.006.045.012.085.018.121,0,.006,0,.013,0,.02a.227.227,0,0,1,0,.065.285.285,0,0,1,0,.052.136.136,0,0,1,0,.023c0,.126,0,.26.011.367.018.034-.012.039-.024.067,0,.225,0,.426-.006.61a.291.291,0,0,1,0,.118c0,.016,0,.03,0,.044a.268.268,0,0,1,0,.052v0c0,.033,0,.058,0,.073a.056.056,0,0,1,0,.016c0,.038.006.079.007.13,0,.028,0,.063-.007.1,0,.073.007.147.01.221.009.158.018.307.014.419a.363.363,0,0,1-.019.094c0,.076,0,.145-.005.213a.94.94,0,0,1,.022.291c0,.128,0,.277.011.4.019.036-.018.042-.024.079v0a.509.509,0,0,1,.021.2.376.376,0,0,1-.02.1v.02c0,.12,0,.234,0,.345.038.009.059.026.042.058l-.043.007v.108a2.263,2.263,0,0,1,0,.334c0,.056.01.153.015.178a.337.337,0,0,1,.013.086l-.01.326c0,.01,0,.021,0,.032v.006l-.02.659a.365.365,0,0,1,.007.074c0,.143,0,.28,0,.415v.206a.34.34,0,0,1-.017.108v.01c0,.024.022.033.014.06a.084.084,0,0,0,0,.02c0,.022,0,.039-.006.055a.838.838,0,0,1,.01.207c0,.017,0,.036,0,.054v.026c0,.065.008.128.009.188.038.027-.027.181,0,.212-.024.91-.033,1.628.023,2.537h.02c-.007.012-.011.024-.017.035.007.122.012.245.023.366" transform="translate(44.356 -157.117)" fill="#fdf6e0"/>
        <path id="Path_4331" data-name="Path 4331" d="M.093,29.856A.316.316,0,0,0,.11,29.78c0-.038,0-.076,0-.115A.282.282,0,0,0,.1,29.616H.107a.208.208,0,0,1,0-.025c0-.054.007-.106.009-.16.018-.33.027-.655.019-.985,0-.064,0-.126,0-.188,0-.009,0-.014,0-.021.005-.108.013-.217.015-.331,0-.058,0-.111,0-.16s-.009-.068-.01-.108a.479.479,0,0,1,.01-.128c0-.09,0-.166-.007-.229a2.526,2.526,0,0,1,0-.348c0-.028,0-.054,0-.083,0-.062,0-.129-.006-.2l0-.117a2.149,2.149,0,0,1,.021-.591l0-.027a2.221,2.221,0,0,1-.01-.389A.36.36,0,0,0,.089,25.5c0-.056-.016-.114-.023-.171a1.354,1.354,0,0,1,.082-.12v-.021c0-.134,0-.253,0-.346,0-.042-.008-.083-.008-.111A.478.478,0,0,1,.143,24.6c0-.021,0-.04,0-.06a1.25,1.25,0,0,1-.012-.155c0-.02,0-.04,0-.061a1.123,1.123,0,0,1,.031-.191q.006-.352.008-.71c0-.178-.008-.347-.019-.457a.547.547,0,0,1,.018-.214.018.018,0,0,1,0-.008v-.021c0-.147,0-.29,0-.432a.369.369,0,0,1,0-.04h0c-.007-.045-.017-.1-.022-.179A.551.551,0,0,1,.13,21.89c0-.033,0-.067,0-.1V21.75c0-.171-.007-.384-.017-.591S.1,20.754.107,20.588a.554.554,0,0,1,.026-.14l0-.116a1.786,1.786,0,0,1,.036-.451c0-.17,0-.364-.011-.522-.016-.04,0-.052.018-.08,0-.044,0-.1,0-.161a1.063,1.063,0,0,1,.018-.226,1.441,1.441,0,0,1-.049-.344l0,0a.629.629,0,0,1,0-.076.212.212,0,0,1,.037-.113c0-.007,0-.016,0-.023,0-.033,0-.06,0-.081a.469.469,0,0,1-.011-.1,2.1,2.1,0,0,1,.018-.387c0-.118-.01-.237-.014-.355h0A.95.95,0,0,1,.17,17.24c-.006-.147-.009-.281-.006-.385a.6.6,0,0,1,.027-.164v-.012c0-.093,0-.156,0-.207a1.782,1.782,0,0,1-.043-.28.2.2,0,0,1,0-.032c0-.042.04-.04.051-.066v-.06a1.451,1.451,0,0,1-.037-.506c-.022-.054.031-.052.027-.121,0-.1,0-.173,0-.233a.817.817,0,0,1,0-.1.528.528,0,0,0,0-.074.61.61,0,0,1-.006-.188.48.48,0,0,1,.006-.051c0-.131-.008-.276-.014-.41-.009-.213-.017-.41-.012-.556a.507.507,0,0,1,.012-.1c0-.078,0-.156.006-.239a.534.534,0,0,1,0-.124c-.006-.059-.013-.113-.019-.16a.154.154,0,0,0,0-.028.468.468,0,0,1,0-.086.631.631,0,0,1,0-.068.191.191,0,0,1,0-.029c0-.169,0-.345-.011-.485-.018-.046.012-.053.024-.092,0-.3,0-.567.006-.809a.5.5,0,0,1,0-.158c0-.021,0-.038,0-.054s0-.047,0-.072v0c0-.041,0-.074,0-.1s0-.013,0-.021c0-.051-.007-.1-.007-.175,0-.037,0-.082.007-.13,0-.1-.007-.2-.012-.293-.008-.211-.017-.408-.013-.556a.575.575,0,0,1,.019-.125c0-.049,0-.092,0-.135C.128,9.745.1,9.722.123,9.674c.02,0,.034-.007.052-.011,0-.018,0-.038,0-.055a1.621,1.621,0,0,1-.023-.387c0-.168,0-.364-.01-.526-.02-.048.018-.055.025-.106V8.582a.915.915,0,0,1-.022-.268.62.62,0,0,1,.02-.129c0-.008,0-.016,0-.026,0-.249,0-.473,0-.689a4,4,0,0,1,0-.444c0-.073-.011-.2-.015-.233A.55.55,0,0,1,.138,6.68l.009-.435c0-.013,0-.028,0-.04a.057.057,0,0,1,0-.01l.019-.871a.576.576,0,0,1-.01-.1c0-.092,0-.181,0-.272C.137,4.926.116,4.9.1,4.881.11,4.371.122,3.861.13,3.352.272,1.966.406.686,1.16.013c.507.006,1.013.015,1.523.012.152,0,.3,0,.456,0l.049,0c.26,0,.518.01.791.013h.383c.086,0,.166-.008.263-.009s.2,0,.3.008c.217,0,.4,0,.553-.007.333,0,.589,0,.832,0l.2,0L7,.027l.278,0A13.611,13.611,0,0,1,8.7.041h.062c.519-.018.864-.014,1.1,0s.457,0,.634,0l.827,0,.268-.006c.107,0,.206,0,.3.006l.142,0c.111-.006.236-.009.375-.009h.146c.13,0,.295.012.458.026q.842.007,1.7.008c.425,0,.833-.008,1.095-.018a3.717,3.717,0,0,1,.515.016l.021,0h1.086c.03,0,.062,0,.093,0h0c.105-.007.251-.014.429-.02A3.724,3.724,0,0,1,18.4.022c.077,0,.161,0,.245,0h.093c.409,0,.917-.007,1.412-.014S21.12,0,21.515,0a3.214,3.214,0,0,1,.334.025l.283,0c.551,0,.857.007,1.077.032.411,0,.873,0,1.254-.01a.44.44,0,0,1,.191.015l.384,0c.145,0,.346,0,.546.014.22-.008.594-.058.823-.041h0l.185,0a1.168,1.168,0,0,1,.268.034h.252c.08,0,.16-.008.242-.008.448,0,.712,0,.928.014l.851-.011h0c.112-.006.248-.008.4-.006.352-.007.674-.009.923-.007a3.725,3.725,0,0,1,.395.025h.025l.5,0c.265-.014.529-.044.673-.039l.075,0c.1,0,.1.036.156.046h.146A9.327,9.327,0,0,1,33.64.042c.132-.019.124.028.292.025h.556c.079,0,.159,0,.239,0,.051,0,.118,0,.177,0a4.354,4.354,0,0,1,.45-.006l.123.006c.314,0,.659-.007.982-.012.505-.008.977-.014,1.328-.01a2.4,2.4,0,0,1,.246.012c.184,0,.378,0,.571,0,.1,0,.2,0,.3,0,.141-.006.267-.01.383-.018h.068c.078,0,.144,0,.2,0s.1,0,.164,0a.713.713,0,0,1,.073,0c.4,0,.825,0,1.166-.011a.56.56,0,0,1,.214.022c.715,0,1.357,0,1.937,0a3.383,3.383,0,0,1,.379,0c.051,0,.091,0,.13,0,.058,0,.115,0,.172,0h0c.1,0,.182,0,.232,0h.052c.12,0,.252,0,.417-.006.09,0,.2,0,.314.006l.7-.008c.5-.009.98-.015,1.333-.013.1,0,.2.007.3.016l.678,0c.417-.012.749-.039.926-.02.406,0,.875,0,1.262-.009.116-.018.133.015.253.021h.016a6.174,6.174,0,0,1,.643-.019c.106,0,.214.008.311.019H51.3c.594,0,1.137,0,1.649,0,.268-.021.674,0,1.066,0,.176,0,.483-.008.562-.013s.177-.009.27-.009l1.04.008h.12L58.1.055c.075-.006.159-.009.24-.009l1.322,0,.654,0c.116,0,.237.006.344.016h.031a1.4,1.4,0,0,1,.192-.013l.064,0,.177.006c.153-.008.407-.014.65-.009h.26c.489-.008.955-.016,1.3-.012.078,0,.152,0,.223.009.788,0,1.47,0,2.057.008a5.224,5.224,0,0,1,.606,0h.262a3.38,3.38,0,0,1,.344-.019c.864-.008,1.45,0,1.878.01l.429,0q.236,0,.4,0l.069,0c.165,0,5.136-.007,5.312,0a.118.118,0,0,0,.061.042c.314.076.628.143.942.194.888.447,1.4,1.653,1.623,3.124a.616.616,0,0,1-.019.1v.025a2.023,2.023,0,0,1,0,.459c0,.1,0,.189,0,.265,0,.133,0,.251.005.344,0,.043.006.084.008.112a.71.71,0,0,1-.008.125c0,.022,0,.042,0,.06a1.249,1.249,0,0,1,.011.156c0,.018,0,.039,0,.059a1.615,1.615,0,0,1-.031.192q-.006.295-.008.591a.377.377,0,0,0,.083.04,1.106,1.106,0,0,0,.023.17c-.029.047-.065.094-.1.144,0,.085.007.16.013.217a.576.576,0,0,1-.016.213l0,.011V6.7c0,.144,0,.287,0,.428,0,.015.006.026.006.041.008.044.016.105.023.179a.571.571,0,0,1,.016.182c0,.033,0,.066,0,.1v.04c0,.169.006.38.016.587s.015.4.012.57a.54.54,0,0,1-.027.137l0,.118a1.834,1.834,0,0,1-.036.45c0,.168.005.361.012.52.016.039,0,.051-.018.079,0,.045,0,.1,0,.16a1.175,1.175,0,0,1-.017.227,1.421,1.421,0,0,1,.048.341l0,0c0,.032,0,.064,0,.078a.21.21,0,0,1-.039.112.239.239,0,0,0,0,.025c0,.03,0,.058,0,.079a.442.442,0,0,1,.01.1,2.049,2.049,0,0,1-.017.385c0,.116.009.235.014.354h0a.937.937,0,0,1,.007.164c.006.147.01.282.006.384a.564.564,0,0,1-.027.165v.011c0,.094,0,.156.005.208a1.981,1.981,0,0,1,.044.279.3.3,0,0,1,0,.032c0,.043-.04.039-.051.065v.061a1.422,1.422,0,0,1,.036.5c.023.055-.03.051-.028.121,0,.1,0,.173,0,.232a.97.97,0,0,1,0,.1c0,.021,0,.048,0,.074a.693.693,0,0,1,.007.186c0,.019,0,.037-.008.053,0,.131.01.273.015.409.008.208.017.406.012.552a.533.533,0,0,1-.013.1c0,.077,0,.156-.005.239a.694.694,0,0,1,0,.122c.006.059.012.111.018.16,0,.007,0,.018,0,.027a.4.4,0,0,1,0,.086.459.459,0,0,1,0,.067.2.2,0,0,1,0,.03c0,.166,0,.344.011.484.018.046-.012.052-.024.089,0,.3,0,.565-.006.806a.518.518,0,0,1,0,.158c0,.019,0,.038,0,.054a.543.543,0,0,1,0,.071v0c0,.044,0,.075,0,.1a.1.1,0,0,1,0,.022c0,.051.006.105.007.174,0,.039,0,.082-.007.13,0,.1.007.2.01.293.009.209.018.407.014.554a.617.617,0,0,1-.019.124c0,.1,0,.192-.005.283a1.625,1.625,0,0,1,.022.385c0,.168,0,.364.011.526.019.047-.018.054-.024.1v.007a.879.879,0,0,1,.021.267.648.648,0,0,1-.02.13v.026c0,.161,0,.311,0,.457.038.013.059.035.042.078l-.043.008V21.9a3.981,3.981,0,0,1,0,.444c0,.073.01.2.015.234a.562.562,0,0,1,.012.111l-.01.432c0,.015,0,.03,0,.04v.01l-.02.87a.655.655,0,0,1,.007.1c0,.19,0,.37,0,.55v.272a.613.613,0,0,1-.017.143v.013c0,.032.022.045.014.079a.128.128,0,0,0,0,.027c0,.031,0,.054-.006.073a1.43,1.43,0,0,1,.01.272c0,.022,0,.051,0,.073v.035c0,.086.008.168.009.25.038.037-.027.239,0,.28-.024,1.2-.033,2.153.023,3.353h.02c-.007.015-.011.032-.017.048.007.162.012.322.023.481-.027.042.018.17,0,.213a3.117,3.117,0,0,0-.041.456h-.182c0,.008,0,.014,0,.023l-.137-.007c-.044.018-.086.039-.129.056-.1-.021-.2-.046-.3-.068-.192,0-.387,0-.584.007-.038,0-.074,0-.111,0a.384.384,0,0,1-.237.043.885.885,0,0,1-.235-.051c-.727-.015-6.271-.02-7-.015h-.46c-.02,0-.032,0-.049,0-.262,0-.524-.012-.8-.013H67.3c-.021.006-.043.009-.066.015-.074.006-.143,0-.215,0L67,30.81l-.327-.023c-.089-.006-.175-.013-.266-.021a.256.256,0,0,0-.246.116c-.083,0-.164.012-.245.016-.14-.042-.286-.1-.437-.152-.187,0-.355,0-.512-.007-.069,0-.133,0-.2,0l-.488,0a.376.376,0,0,1-.078,0l-.206,0a13.808,13.808,0,0,1-1.423-.018l-.065,0c-.307.012-.552.016-.75.014a1.694,1.694,0,0,1-.176.008.312.312,0,0,1-.068-.014c-.04,0-.08,0-.115,0-.239,0-.46,0-.637,0l-.834,0c-.107.006-.2.007-.27.007-.108,0-.208,0-.305-.007H59.2c-.109.007-.236.009-.375.011l-.148,0c-.129,0-.3-.013-.459-.026q-.851-.007-1.712-.007c-.426,0-.838.007-1.1.015a3.559,3.559,0,0,1-.517-.014l-.022,0h-.053c-.352,0-.7,0-1.039,0-.032,0-.062,0-.1,0h0c-.107.007-.251.015-.431.021a4.071,4.071,0,0,1-.44.014c-.078,0-.162,0-.244,0h-.094c-.414,0-.923.007-1.422.014s-.98.015-1.38.012c-.12,0-.232-.012-.337-.023l-.284,0c-.554,0-.863-.007-1.085-.032-.411,0-.879,0-1.261.01a.428.428,0,0,1-.192-.017c-.108,0-.229,0-.387,0s-.348,0-.548-.015c-.223.009-.6.056-.828.042l-.007,0c-.078,0-.15,0-.185,0a1.3,1.3,0,0,1-.272-.032h-.057l-.195,0c-.058,0-.116,0-.175.007-.016.032-.047.052-.113.036,0-.014-.01-.022-.014-.034-.416,0-.668,0-.876-.015-.28,0-.572.008-.856.01h0c-.111.006-.251.01-.4.007-.354.006-.68.008-.928.006a3.677,3.677,0,0,1-.4-.024h-.027l-.5,0c-.267.014-.532.044-.675.038l-.078,0c-.1,0-.1-.034-.158-.045H38.68a9.607,9.607,0,0,1-1.221.031c-.131.02-.124-.025-.293-.023h-.8c-.051,0-.119,0-.178,0a4.07,4.07,0,0,1-.453.006c-.041,0-.081,0-.125-.006-.314,0-.66.006-.986.012-.51.007-.986.015-1.341.012-.082,0-.166-.006-.245-.012-.188,0-.38,0-.576-.006-.1.006-.2,0-.3,0-.144.006-.27.012-.386.015l-.069,0H31.5c-.056,0-.1,0-.163,0l-.074,0c-.4,0-.828,0-1.17.007a.563.563,0,0,1-.219-.02c-.721,0-1.367,0-1.95-.006a3.124,3.124,0,0,1-.382,0l-.13,0c-.059,0-.115,0-.172,0h-.007c-.1,0-.179,0-.231,0l-.053,0c-.122,0-.251.006-.42.006-.091,0-.2,0-.316-.007l-.708.012c-.507.008-.986.014-1.34.012-.1,0-.205-.008-.3-.017l-.684-.006c-.419.012-.754.04-.932.02-.409,0-.881,0-1.27.009-.115.018-.134-.015-.255-.022h-.015c-.164.014-.373.022-.649.02-.106,0-.213-.008-.311-.019h-.062c-.6,0-1.145,0-1.662,0-.269.02-.678,0-1.072,0-.178,0-.485.008-.566.013s-.179.012-.272.012l-1.046-.008h-.1a.137.137,0,0,1-.022,0l-2.107-.015c-.078,0-.159.008-.242.008l-1.329,0h-.657c-.12,0-.241,0-.347-.014h-.031a1.647,1.647,0,0,1-.194.013c-.021,0-.041,0-.065,0-.074,0-.128,0-.178,0-.155.008-.409.014-.655.008H8.877c-.489.008-.96.014-1.308.01-.08,0-.154,0-.226-.009-.791,0-1.476,0-2.069-.009a5.785,5.785,0,0,1-.609,0H4.4c-.1.011-.223.016-.345.019-.869.008-1.459,0-1.888-.012l-.432-.006c-.159,0-.3,0-.407,0l-.07,0c-.276.006-.5.012-.9-.009H.1l-.1.008c.01-.14.053-.28.078-.419a1.747,1.747,0,0,0,.015-.452" transform="translate(44.356 0)" fill="#fdf6e0"/>
        <path id="Path_4332" data-name="Path 4332" d="M.277,307.184c1.044,0,6.909-.01,7.953-.014.033.131.063.258.086.372q.006.506.019,1.011c0,.012-.006.021-.006.033-.011.12-.014.24-.023.361a.17.17,0,0,0-.011.027s.006,0,.009,0c-.083,1.17-.086,2.344-.081,3.517a.21.21,0,0,0-.039.012l-.052.034s0,0,0,0c-.359-.574-.74-1.1-1.111-1.65-.185-.33-.364-.669-.53-1.03-.309-.672-5.476-1.3-5.819-1.925,0-.021,0-.043,0-.068a.229.229,0,0,1-.044-.011c-.119-.219-.235-.441-.35-.666" transform="translate(113.586 -257.82)" fill="#fdf6e0"/>
        <path id="Path_4333" data-name="Path 4333" d="M485.967,337.565c.11-.139.013-.28-.034-.411.085-.119.165-.241.242-.368a5.851,5.851,0,0,1,.179-1.083c.033-.132-.134-.133.027-.274.136-.113.07-.272.052-.407.073-.067.14-.138.209-.207,0-.008,0-.017,0-.022s.014-.016.019-.024a7.764,7.764,0,0,1,.316-.822c.055-.123-.109-.154.075-.264.153-.088.118-.256.122-.393.071-.046.138-.094.207-.14a.116.116,0,0,1,0-.021.345.345,0,0,1,.05-.045,6.312,6.312,0,0,1,.357-.6c.018-.047.037-.093.052-.139h.04l.013-.02c.076-.109-.08-.171.121-.245.167-.059.162-.228.193-.365.068-.028.137-.061.206-.09a7.3,7.3,0,0,1,.568-.648c.1-.1-.047-.181.163-.221.176-.027.2-.2.254-.324.115-.025.232-.057.347-.085.092-.049.2-.061.3-.125.13-.081.1-.115.2-.191a1.974,1.974,0,0,1,.4-.3,3.635,3.635,0,0,1,1.26-.812c.122-.057.019-.188.23-.148.173.035.257-.116.351-.216.1.017.2.025.3.037a6.915,6.915,0,0,1,.881-.281c.13-.033.052-.181.253-.106.163.066.272-.067.383-.147.089.031.182.055.272.084.022,0,.044-.011.067-.014a4.14,4.14,0,0,1,.94-.144c.044-.042.059-.1.186-.02.007.006.014,0,.022.008l.038,0c.135-.007.088-.167.269-.05,0,0,.009,0,.013,0,.02-.012.041-.023.063-.034.036.021.074.04.112.059a1.258,1.258,0,0,0,.219-.094c.08.05.165.093.247.139a5.094,5.094,0,0,1,.552.032c.063-.032.079-.107.2,0a.194.194,0,0,0,.047.026l.128.015c.119.017.119-.109.225-.041l.012,0c.039.033.08.061.12.093a.591.591,0,0,0,.329-.039c.051.045.106.087.158.131a6.329,6.329,0,0,1,.914.237c.061-.013.094-.073.164-.006.041-.02.076-.029.15.067a.209.209,0,0,0,.1.079c.063,0,.13-.011.193-.014.007.009.015.018.022.027l.084-.01c.073.093.152.183.228.272.21.088.433.2.69.334.12.066.161-.1.259.094.076.161.245.138.382.153.046.086.1.169.146.253a6.754,6.754,0,0,1,.757.536c.105.085.177-.068.237.139.045.172.217.179.347.219.046.137.1.276.147.414.156.148.315.316.5.52.088.1.185-.034.207.179.014.177.182.215.3.279.013.1.032.191.048.286a6.988,6.988,0,0,1,.518.769c.068.118.188,0,.172.215-.019.175.139.243.248.328,0,.067,0,.136,0,.2a6.157,6.157,0,0,1,.381.863c.049.04.116.029.106.126.042.018.073.04.042.157a.224.224,0,0,0,0,.131c.04.051.089.1.132.141,0,.013,0,.024-.007.035l.059.059c-.015.065-.026.13-.04.193a4.71,4.71,0,0,1,.3,1.223c.018.133.174.069.077.262-.083.155.037.28.1.4-.049.107-.094.217-.139.327.013.2.014.422.009.675.015.02.021.047,0,.094,0,.133.158.1.029.272a.223.223,0,0,0-.047.116.5.5,0,0,1,.031.071l-.02.035c.017.064.049.126.071.187-.054.076-.106.158-.158.238a6.73,6.73,0,0,1-.146.92c-.028.133.139.129-.019.274-.134.115-.063.273-.041.41-.052.049-.1.1-.15.155a6.718,6.718,0,0,1-.321.932c-.053.125.113.15-.068.265-.152.09-.112.259-.114.4-.174.118-.344.246-.511.38a.4.4,0,0,1-.021.209c-.066.138-.2.174-.3.3s-.061.142-.125.245c-.03.048-.056.093-.085.141a3.8,3.8,0,0,1-.843,1.164c-.093.1.053.182-.158.226-.174.032-.2.2-.245.33-.12.029-.238.063-.355.1-.166.152-.354.3-.584.482-.108.08.021.186-.193.193-.178,0-.228.165-.3.281-.1.006-.193.018-.292.026a7.072,7.072,0,0,1-.805.459c-.121.06-.014.189-.226.156-.174-.032-.254.12-.346.221-.071-.008-.143-.012-.215-.019a6.869,6.869,0,0,1-.929.329c-.13.036-.047.181-.251.112-.166-.063-.27.073-.38.158-.115-.037-.234-.067-.352-.1a6.361,6.361,0,0,1-1.038.143c-.135.01-.084.169-.267.058-.151-.1-.28.016-.405.076-.141-.079-.284-.154-.431-.225a.331.331,0,0,1-.125.04.373.373,0,0,1-.172-.038c-.014,0-.026.007-.038.008a.286.286,0,0,1-.033-.006l-.014.008a.217.217,0,0,0-.028-.012,1.193,1.193,0,0,1-.225-.093.9.9,0,0,1-.171.017c-.073-.006-.148-.007-.224-.011s-.173,0-.254.012a.416.416,0,0,0-.024-.059c-.027-.009-.054-.023-.082-.035a.869.869,0,0,1-.379-.184h0s0,0,0,0-.019-.02-.028-.028l-.092.02a.509.509,0,0,1-.141.033c-.012,0-.024,0-.036,0-.042.01-.083.018-.124.025a1.63,1.63,0,0,1-.316-.232l-.038-.012c-.01.008-.019.01-.027.02,0-.012-.009-.021-.013-.033a1.355,1.355,0,0,1-.184-.023,3.566,3.566,0,0,1-.358-.1c-.032-.007-.064-.014-.1-.019q-.221-.107-.436-.2h0a.365.365,0,0,1-.075,0l-.21.006a1.343,1.343,0,0,1-.2-.206,5.678,5.678,0,0,0-.61-.2.624.624,0,0,0-.005-.175c-.025-.016-.048-.033-.072-.052a2.154,2.154,0,0,1-.6-.29l-.1-.015a.89.89,0,0,1-.066-.1c-.144-.105-.3-.225-.464-.363-.033-.016-.066-.039-.1-.058-.07-.011-.124.04-.166-.1a2.758,2.758,0,0,1-.28-.221c-.022-.008-.046-.014-.067-.019,0-.019-.012-.038-.019-.057-.145-.137-.3-.288-.465-.47-.09-.1-.185.041-.212-.173-.019-.177-.187-.21-.311-.269-.033-.21-.077-.417-.128-.625a.388.388,0,0,1-.179-.108.125.125,0,0,1-.017-.028c-.006,0-.01,0-.014-.007s0-.02-.009-.03a2.479,2.479,0,0,1-.084-.278c-.132-.161-.263-.316-.4-.452a.713.713,0,0,0,.041-.077.867.867,0,0,1-.124-.518l-.073-.06a.53.53,0,0,1-.113-.088c-.01-.01-.017-.019-.026-.029l-.1-.081a1.257,1.257,0,0,1-.017-.284.021.021,0,0,1-.009-.009,1,1,0,0,1-.008-.149c-.034-.082-.067-.092-.107-.183a2.233,2.233,0,0,1-.165-.438c-.015-.025-.029-.051-.045-.074a.471.471,0,0,0,.031-.036.913.913,0,0,1,.017-.234.567.567,0,0,1-.226-.235.933.933,0,0,1,.007-.366c-.012-.014-.022-.029-.033-.043a.9.9,0,0,1,.014-.109,1.147,1.147,0,0,1-.065-.167,1.933,1.933,0,0,1-.086-.493,3.569,3.569,0,0,1-.165-1.489c0-.134-.16-.1-.032-.272" transform="translate(-462.601 -275.184)" fill="#5a5b5e"/>
        <path id="Path_4334" data-name="Path 4334" d="M518.88,365.47c.053-.068.007-.135-.017-.2.041-.059.08-.119.118-.179a2.758,2.758,0,0,1,.087-.528c.015-.064-.066-.064.013-.132s.034-.133.025-.2c.035-.033.068-.068.1-.1a.03.03,0,0,0,0-.012s.008-.008.01-.012a3.574,3.574,0,0,1,.153-.4c.027-.059-.053-.074.037-.127s.057-.124.06-.191c.035-.022.068-.046.1-.069,0,0,0-.006,0-.009s.017-.014.024-.023c.046-.087.1-.182.173-.289a.6.6,0,0,0,.026-.067c.007,0,.012,0,.019,0a.04.04,0,0,0,.006-.012c.039-.053-.039-.081.06-.119.08-.027.078-.112.093-.177.034-.013.067-.028.1-.044a3.524,3.524,0,0,1,.277-.315c.046-.045-.024-.087.079-.107.085-.012.1-.094.122-.157.057-.013.113-.027.17-.043a1.474,1.474,0,0,0,.146-.059c.064-.04.05-.055.094-.094a1.008,1.008,0,0,1,.2-.143,1.745,1.745,0,0,1,.611-.395c.059-.027.01-.09.112-.072.085.017.125-.056.171-.1.049.007.1.011.146.018a3.364,3.364,0,0,1,.426-.137c.064-.017.026-.087.124-.05.08.033.133-.032.187-.073.043.017.087.028.132.043l.033-.009a2.116,2.116,0,0,1,.457-.068c.02-.021.028-.047.089-.008h.03c.064,0,.043-.081.13-.026l.006,0,.032-.017.054.03a.774.774,0,0,0,.106-.046c.039.023.08.045.12.067a2.446,2.446,0,0,1,.268.016c.031-.017.038-.052.1,0a.048.048,0,0,0,.022.012l.062.008c.057.009.058-.053.108-.02l.007,0c.019.016.039.03.058.046a.294.294,0,0,0,.161-.019c.023.021.051.041.075.063a2.772,2.772,0,0,1,.444.114c.03-.006.046-.034.079,0,.021-.012.038-.015.073.031a.092.092,0,0,0,.051.039c.031,0,.063-.006.093-.008l.012.016.04,0c.036.045.074.087.111.132.1.042.212.1.336.162.057.031.078-.047.125.047.037.076.118.065.186.073.021.041.047.081.07.124a3.136,3.136,0,0,1,.367.259c.051.041.087-.032.115.069.021.082.1.085.168.1.022.068.046.134.071.2.076.071.153.153.242.252.042.049.089-.016.1.088.007.086.089.1.149.135.006.045.015.091.023.138a3.63,3.63,0,0,1,.251.374c.034.057.093,0,.084.1-.009.087.068.119.12.16,0,.033,0,.066,0,.1a3.269,3.269,0,0,1,.186.419c.023.02.055.014.051.061.021.009.035.02.021.078a.111.111,0,0,0,0,.062c.02.024.045.047.066.068,0,.006,0,.013,0,.018s.02.019.028.028c-.007.032-.012.062-.019.094a2.193,2.193,0,0,1,.146.594c.009.064.085.035.038.127-.04.076.019.135.052.194-.024.051-.045.1-.068.157.007.1.007.206,0,.328.008.01.012.023,0,.046,0,.064.078.047.014.13a.116.116,0,0,0-.022.058c.006.013.011.024.015.036l-.01.016c.008.031.024.061.035.092-.027.035-.051.075-.076.114a3.716,3.716,0,0,1-.071.448c-.014.062.067.062-.01.132s-.03.133-.02.2c-.025.023-.048.051-.073.076a3.424,3.424,0,0,1-.157.454c-.025.06.057.072-.033.128-.073.044-.054.124-.054.192-.084.058-.167.118-.248.184a.2.2,0,0,1-.011.1c-.033.067-.1.085-.147.144s-.029.071-.06.119c-.014.025-.028.047-.042.068a1.8,1.8,0,0,1-.408.567c-.046.048.026.088-.078.108-.085.016-.094.1-.119.162-.057.013-.116.029-.173.047-.08.072-.17.147-.283.233-.052.039.01.091-.094.094-.087,0-.11.079-.146.136-.047,0-.094.01-.14.012a3.2,3.2,0,0,1-.392.224c-.059.029-.007.091-.11.075-.084-.015-.123.059-.168.108l-.1-.01a3.115,3.115,0,0,1-.452.16c-.063.018-.024.088-.122.054-.08-.03-.132.036-.183.076-.057-.017-.114-.033-.172-.047a3.036,3.036,0,0,1-.5.068c-.065.006-.041.082-.129.028-.073-.046-.137.009-.2.036-.067-.038-.137-.073-.208-.109a.16.16,0,0,1-.06.02.181.181,0,0,1-.085-.018.083.083,0,0,1-.018,0l-.015,0-.007,0a.04.04,0,0,1-.014-.006.579.579,0,0,1-.109-.044.508.508,0,0,1-.081.007c-.038,0-.073,0-.11,0s-.083,0-.122,0c0-.013-.009-.017-.012-.028l-.04-.016a.41.41,0,0,1-.184-.089h0s0,0,0,0-.009-.01-.014-.013l-.045.008a.238.238,0,0,1-.068.017h-.018c-.019.006-.04.009-.061.014a.825.825,0,0,1-.152-.113l-.018-.006a.139.139,0,0,0-.014.01l-.007-.017a.8.8,0,0,1-.088-.009c-.058-.017-.117-.027-.173-.05l-.047-.01c-.072-.034-.142-.066-.212-.1h0a.361.361,0,0,1-.038,0l-.1,0a.561.561,0,0,1-.1-.1,3,3,0,0,0-.3-.093.34.34,0,0,0,0-.087.163.163,0,0,1-.034-.025.984.984,0,0,1-.292-.14c-.014,0-.03-.006-.047-.007a.51.51,0,0,1-.032-.046c-.07-.052-.144-.109-.225-.177-.016-.007-.032-.019-.047-.027-.034,0-.061.019-.082-.051-.045-.032-.09-.069-.135-.108a.151.151,0,0,1-.032-.01.209.209,0,0,1-.01-.026c-.071-.067-.143-.139-.226-.228-.044-.048-.09.019-.1-.085-.009-.086-.09-.1-.151-.131-.016-.1-.037-.2-.061-.3a.193.193,0,0,1-.087-.054.044.044,0,0,1-.009-.013l-.007,0a.05.05,0,0,0,0-.014.952.952,0,0,1-.041-.135,2.663,2.663,0,0,0-.194-.219.369.369,0,0,0,.02-.038.413.413,0,0,1-.06-.25.338.338,0,0,0-.036-.031.267.267,0,0,1-.055-.042.112.112,0,0,0-.013-.013l-.047-.041a.606.606,0,0,1-.008-.138l0,0c0-.024,0-.048,0-.074s-.033-.044-.051-.089a1.073,1.073,0,0,1-.081-.211c-.008-.013-.014-.026-.021-.036a.167.167,0,0,1,.017-.017.369.369,0,0,1,.006-.116.265.265,0,0,1-.11-.113.487.487,0,0,1,0-.179l-.015-.02a.389.389,0,0,1,.009-.054.488.488,0,0,1-.033-.081.949.949,0,0,1-.041-.239,1.752,1.752,0,0,1-.08-.723c0-.066-.076-.049-.015-.133" transform="translate(-490.247 -302.797)" fill="#ddd9d4"/>
        <path id="Path_4335" data-name="Path 4335" d="M52.332,339.439c.1-.14.006-.276-.044-.4.081-.117.157-.241.231-.366a5.52,5.52,0,0,1,.151-1.068c.029-.129-.136-.127.02-.268.13-.115.062-.27.041-.4.068-.067.134-.137.2-.207l0-.021c0-.009.014-.018.019-.026a7.693,7.693,0,0,1,.291-.814c.052-.12-.111-.147.068-.259.149-.089.11-.253.112-.387.068-.046.132-.1.2-.145,0-.006,0-.013,0-.02s.034-.029.048-.043a6.448,6.448,0,0,1,.337-.593c.016-.046.034-.093.048-.138a.212.212,0,0,0,.039,0l.012-.018c.074-.113-.082-.167.114-.245.163-.06.154-.228.182-.361.067-.029.133-.064.2-.094a7.623,7.623,0,0,1,.543-.649c.092-.094-.051-.176.155-.22.171-.03.191-.2.241-.322.114-.028.227-.061.34-.092.088-.05.192-.062.291-.127.126-.082.1-.115.188-.193a1.885,1.885,0,0,1,.388-.3,3.542,3.542,0,0,1,1.217-.825c.119-.058.014-.185.223-.152.171.031.249-.117.34-.218.1.013.2.019.294.03a7.027,7.027,0,0,1,.858-.3c.128-.035.047-.179.246-.109.162.062.266-.071.374-.153.088.028.179.051.268.077l.066-.015a4.083,4.083,0,0,1,.92-.16c.041-.044.054-.1.182-.025.008,0,.014,0,.022.008l.037,0c.133-.008.083-.163.264-.054l.012,0c.021-.01.041-.022.061-.034.037.02.075.036.111.054a1.369,1.369,0,0,0,.212-.1c.081.043.165.086.247.129a4.623,4.623,0,0,1,.541.019c.062-.034.076-.106.2,0a.163.163,0,0,0,.046.025l.126.012c.116.016.115-.109.22-.046a.042.042,0,0,1,.012,0c.039.031.08.059.12.09a.58.58,0,0,0,.322-.046c.051.044.105.082.157.125a6.089,6.089,0,0,1,.9.213c.061-.015.091-.073.162-.009.04-.02.075-.033.147.061a.211.211,0,0,0,.1.076c.063,0,.128-.014.189-.019l.023.025.082-.01c.073.09.152.174.23.262.207.081.429.187.685.313.118.061.156-.1.255.087.078.155.243.129.378.142.047.081.1.161.148.242a6.518,6.518,0,0,1,.755.511c.1.08.172-.07.234.131.048.168.216.17.347.208.047.136.1.269.153.4.156.143.316.3.5.5.089.1.181-.039.208.17.017.173.182.206.3.264.014.1.035.187.052.282a6.686,6.686,0,0,1,.527.743c.069.114.185,0,.172.207-.014.173.142.236.25.318,0,.065,0,.132,0,.2a6.307,6.307,0,0,1,.394.838c.049.039.112.025.107.12.041.018.071.04.044.154a.214.214,0,0,0,.006.128c.04.048.09.091.133.136,0,.011,0,.022-.007.034l.06.057c-.014.062-.022.127-.034.189a4.608,4.608,0,0,1,.323,1.192c.022.132.173.066.082.257-.079.155.042.272.112.387-.047.106-.088.214-.131.324.018.2.024.414.025.661.016.021.023.046,0,.092,0,.13.157.094.035.266a.206.206,0,0,0-.043.117.685.685,0,0,1,.031.067l-.019.034c.019.063.052.123.074.183-.052.076-.1.158-.149.236a7,7,0,0,1-.122.908c-.027.131.139.123-.014.27-.128.116-.057.269-.031.4-.049.05-.1.105-.144.158a6.579,6.579,0,0,1-.294.919c-.05.125.114.147-.061.264-.147.092-.1.254-.1.391-.169.118-.332.247-.492.381a.407.407,0,0,1-.018.207c-.061.137-.194.174-.289.3s-.056.142-.117.245c-.028.046-.053.093-.08.14a3.74,3.74,0,0,1-.8,1.16c-.089.1.055.178-.15.225-.17.035-.187.2-.233.329-.116.031-.231.066-.346.1-.16.152-.339.307-.561.485-.1.08.024.183-.187.193-.174,0-.219.167-.287.284-.094.007-.188.021-.283.032a7.293,7.293,0,0,1-.781.468c-.118.06-.011.184-.219.157-.172-.027-.246.124-.334.226-.071-.007-.142-.01-.213-.016a6.345,6.345,0,0,1-.9.343c-.127.04-.042.18-.243.115-.164-.058-.264.079-.37.162-.114-.033-.231-.06-.347-.088a6.158,6.158,0,0,1-1.015.165c-.133.012-.079.169-.262.063-.149-.09-.275.02-.4.082-.139-.074-.282-.145-.426-.212a.316.316,0,0,1-.123.042.363.363,0,0,1-.17-.033.115.115,0,0,1-.036.008c-.011,0-.021,0-.033,0a.039.039,0,0,0-.014.007l-.027-.013a1.183,1.183,0,0,1-.223-.085,1.175,1.175,0,0,1-.167.019c-.074,0-.147,0-.221,0s-.17.006-.248.018c-.007-.025-.018-.035-.025-.057a.665.665,0,0,1-.081-.033.853.853,0,0,1-.375-.171h0s0,0,0,0L60.4,349.3l-.09.02a.436.436,0,0,1-.138.037l-.035,0c-.04.011-.082.019-.122.029a1.677,1.677,0,0,1-.314-.222.384.384,0,0,0-.037-.011.131.131,0,0,0-.026.022c0-.013-.009-.022-.014-.033a1.205,1.205,0,0,1-.181-.016c-.117-.032-.234-.049-.352-.09-.032-.008-.064-.015-.1-.019-.146-.065-.289-.129-.431-.186h-.005a.5.5,0,0,1-.073,0c-.068,0-.138,0-.206.011a1.262,1.262,0,0,1-.2-.2c-.206-.071-.407-.133-.6-.179a.629.629,0,0,0-.009-.17.713.713,0,0,1-.071-.051,2.019,2.019,0,0,1-.593-.27l-.1-.013a1.009,1.009,0,0,1-.068-.092c-.143-.1-.294-.213-.461-.344-.033-.015-.065-.038-.1-.056-.068-.008-.122.042-.166-.1a2.834,2.834,0,0,1-.281-.213.556.556,0,0,1-.065-.018c-.006-.016-.013-.034-.019-.052-.146-.131-.3-.276-.467-.451-.091-.1-.179.043-.212-.166-.022-.173-.188-.2-.311-.258q-.056-.305-.14-.61a.388.388,0,0,1-.179-.1.229.229,0,0,1-.017-.028l-.013-.007a.283.283,0,0,1-.008-.027,2.122,2.122,0,0,1-.088-.27,5.765,5.765,0,0,0-.4-.436.6.6,0,0,0,.04-.075.866.866,0,0,1-.134-.5l-.072-.059a.426.426,0,0,1-.113-.084.186.186,0,0,1-.025-.026c-.032-.025-.065-.052-.1-.078a1.282,1.282,0,0,1-.023-.277.036.036,0,0,0-.009-.008,1.027,1.027,0,0,1-.011-.147c-.036-.08-.069-.09-.109-.179a2.2,2.2,0,0,1-.172-.426c-.015-.021-.03-.049-.045-.069.013-.013.018-.025.03-.038a.839.839,0,0,1,.009-.23.534.534,0,0,1-.227-.225.949.949,0,0,1,0-.36l-.033-.04a.926.926,0,0,1,.012-.109,1.177,1.177,0,0,1-.068-.161,1.888,1.888,0,0,1-.1-.481,3.544,3.544,0,0,1-.194-1.456c0-.133-.159-.1-.036-.267" transform="translate(41.094 -276.716)" fill="#5a5b5e"/>
        <path id="Path_4336" data-name="Path 4336" d="M87.138,369.965c.049-.06.006-.125-.016-.184.038-.053.074-.108.109-.165a2.565,2.565,0,0,1,.081-.488c.014-.06-.061-.06.012-.124.061-.049.031-.121.022-.183.033-.028.064-.06.095-.092a.083.083,0,0,1,0-.012l.009-.009a3.205,3.205,0,0,1,.141-.371c.025-.054-.049-.071.033-.119s.053-.114.055-.175c.032-.02.062-.044.093-.065a.054.054,0,0,0,0-.009.223.223,0,0,1,.022-.019,3.062,3.062,0,0,1,.161-.268c.008-.021.016-.043.023-.064a.118.118,0,0,0,.018,0L88,367.61c.034-.048-.037-.077.054-.11s.073-.1.087-.165c.031-.012.061-.026.092-.04a3.6,3.6,0,0,1,.256-.291c.043-.044-.022-.081.073-.1.078-.013.09-.088.114-.146.052-.011.1-.025.156-.039s.089-.027.135-.054.047-.053.089-.087a.85.85,0,0,1,.181-.133,1.637,1.637,0,0,1,.566-.366c.055-.026.008-.084.1-.067.078.015.116-.052.158-.1l.135.015a3.228,3.228,0,0,1,.4-.127c.059-.014.023-.081.114-.047.074.031.122-.029.173-.068.04.015.081.028.122.04l.031-.008a1.949,1.949,0,0,1,.424-.064c.018-.018.026-.044.083-.007h.027c.06,0,.04-.074.121-.021H91.7l.029-.015.05.026a.513.513,0,0,0,.1-.042c.036.022.073.042.111.062a2.367,2.367,0,0,1,.248.015c.029-.015.036-.047.092,0a.067.067,0,0,0,.021.01.531.531,0,0,1,.058.008c.053.007.054-.049.1-.019l.005,0c.017.014.036.028.055.042a.256.256,0,0,0,.148-.018c.022.02.047.039.07.058a3.046,3.046,0,0,1,.411.107c.028-.006.042-.033.075,0,.018-.011.034-.014.066.03a.1.1,0,0,0,.047.035c.029,0,.059-.006.086-.007a.068.068,0,0,1,.01.013l.038,0c.033.042.069.081.1.122.094.04.2.09.311.151.053.029.073-.043.116.042s.109.061.171.068c.021.039.044.077.066.113a3.6,3.6,0,0,1,.34.241c.047.04.08-.028.107.064s.1.08.157.1c.019.062.042.125.066.186.07.067.141.141.224.234.039.045.083-.015.093.081.006.079.081.1.137.125.005.042.014.085.022.128a3.208,3.208,0,0,1,.233.347c.031.051.085,0,.077.1-.009.08.063.11.112.148,0,.031,0,.061,0,.091a2.954,2.954,0,0,1,.172.388c.022.019.051.014.048.058.019.009.032.018.019.07a.105.105,0,0,0,0,.06c.018.022.041.042.06.063a.152.152,0,0,0,0,.015l.026.027c-.007.028-.011.058-.017.086a2.107,2.107,0,0,1,.135.55c.008.06.079.033.035.119-.038.07.017.125.048.179-.023.048-.043.1-.063.146.006.089.007.192,0,.3.008.008.011.02,0,.042,0,.059.071.043.013.12a.114.114,0,0,0-.021.054.327.327,0,0,1,.014.032l-.009.015c.008.028.022.056.032.084-.025.034-.048.072-.071.107a3.271,3.271,0,0,1-.065.414c-.013.06.063.059-.009.123s-.028.123-.018.184l-.068.069a2.865,2.865,0,0,1-.144.42c-.024.057.051.068-.031.12s-.05.116-.051.178c-.078.053-.155.11-.23.17a.176.176,0,0,1-.011.094c-.029.063-.09.079-.135.132s-.027.065-.056.11l-.038.064a1.717,1.717,0,0,1-.379.525c-.042.045.024.081-.071.1-.078.015-.088.092-.11.15-.054.013-.107.028-.16.043-.075.068-.159.137-.263.215-.048.036.009.084-.088.088-.08,0-.1.073-.134.126-.044,0-.087.007-.131.012a2.9,2.9,0,0,1-.363.206c-.055.027-.006.086-.1.069-.079-.013-.114.056-.156.1-.032,0-.065-.006-.1-.009a2.948,2.948,0,0,1-.418.147c-.059.018-.022.083-.113.052-.074-.028-.122.033-.171.069l-.158-.044a2.84,2.84,0,0,1-.467.065c-.061,0-.038.077-.121.026-.067-.044-.126.007-.181.034-.064-.037-.128-.07-.194-.1a.154.154,0,0,1-.057.019.163.163,0,0,1-.077-.017.1.1,0,0,1-.017,0c-.005,0-.009,0-.014,0a.012.012,0,0,1-.007,0s-.008,0-.012-.006a.49.49,0,0,1-.1-.041.317.317,0,0,1-.076.007c-.034,0-.068,0-.1,0s-.078,0-.114,0a.154.154,0,0,0-.011-.024l-.036-.016a.391.391,0,0,1-.17-.083h0s0,0,0,0l-.013-.013a.223.223,0,0,1-.041.008.225.225,0,0,1-.063.017h-.017l-.056.012a.822.822,0,0,1-.142-.1.029.029,0,0,0-.017-.006s-.008,0-.011.01,0-.011-.007-.017c-.031-.007-.044,0-.082-.008s-.107-.026-.161-.045c-.014,0-.029-.007-.044-.011l-.2-.09h0a.179.179,0,0,1-.034,0c-.032,0-.062,0-.094,0a.505.505,0,0,1-.091-.093c-.094-.034-.186-.063-.275-.087a.257.257,0,0,0,0-.077c-.011-.008-.021-.015-.032-.025a.9.9,0,0,1-.27-.129l-.043-.007c-.011-.012-.02-.029-.03-.042-.065-.047-.133-.1-.208-.163l-.044-.027c-.031,0-.056.018-.075-.045a1.565,1.565,0,0,1-.127-.1l-.03-.01-.008-.024c-.065-.062-.133-.13-.209-.211-.041-.044-.083.018-.1-.077s-.084-.094-.14-.121c-.014-.094-.034-.188-.057-.28a.188.188,0,0,1-.081-.049.06.06,0,0,1-.007-.014.007.007,0,0,1-.007,0s0-.008,0-.014a1.077,1.077,0,0,1-.038-.123,2.365,2.365,0,0,0-.181-.2.253.253,0,0,0,.02-.035.4.4,0,0,1-.056-.233l-.032-.028a.19.19,0,0,1-.051-.039.081.081,0,0,1-.01-.013l-.044-.037a.57.57,0,0,1-.008-.128l0,0a.432.432,0,0,1,0-.068c-.015-.037-.031-.042-.048-.083a1.044,1.044,0,0,1-.075-.2l-.019-.033a.1.1,0,0,0,.014-.016.377.377,0,0,1,.007-.106.252.252,0,0,1-.1-.106.455.455,0,0,1,0-.166s-.009-.012-.014-.018a.286.286,0,0,1,.007-.049.4.4,0,0,1-.029-.074.836.836,0,0,1-.039-.222,1.606,1.606,0,0,1-.074-.67c0-.061-.072-.046-.014-.123" transform="translate(11.595 -306.861)" fill="#ddd9d4"/>
        <path id="Path_4337" data-name="Path 4337" d="M10.282,21.01c0-.062,0-.128,0-.191h0c.022-.166.034-.333.04-.5l.1-.006H11c.054,0,.117.021,1.311.016.283,0,.163-.018,1.421-.018.8,0,1.93,0,2.7,0,.59,0,1.671.016,1.327.016,1.086,0,2.228-.019,4.126-.019,1.4,0,.841.016,1.311.018,1.188,0,1.443-.02,1.4-.02,1.292,0,2.043.015,4.046.017,5.681,0,12.006-.047,15.986-.012l2.893,0c4.087-.028,8.973-.038,13.29-.044,5.692-.011,16.421-.006,22.493-.011H84.3c-.007.12-.014.24-.015.361s-.013.246-.02.368l-.094,0h-.58c-.055,0-4.936-.02-6.131-.018-.283,0-.163.019-1.421.019-.8,0-1.93,0-2.7,0-.59,0-1.672-.018-1.327-.018-1.086,0-2.228.02-4.126.019-1.4,0-.842-.014-1.311-.017-1.188,0-1.444.021-1.4.021-1.292,0-2.043-.017-4.047-.017-5.682,0-12.006.046-15.986.011l-2.892,0c-4.087.028-8.975,0-13.292.006-5.692.012-11.6.006-17.674.009h-1Z" transform="translate(36.016 -16.998)" fill="#e6e1d6"/>
        <path id="Path_4338" data-name="Path 4338" d="M84.3,39.287c0,.064,0,.127,0,.192h0c-.022.165-.034.331-.041.5-.034,0-.068,0-.1.007h-.58c-.054,0-4.936-.021-6.131-.016-.283,0-.163.018-1.421.018-.8,0-1.93,0-2.7,0-.59,0-1.671-.018-1.327-.018-1.087,0-2.228.02-4.126.02-1.4,0-.842-.015-1.311-.016-1.188,0-1.444.017-1.4.017-1.292,0-2.043-.014-4.047-.015-5.681,0-12.006.047-15.985.012q-1.441,0-2.893,0c-4.087.03-8.973.038-13.29.046-5.692.01-11.6,0-17.674.01h-.993c.007-.12.014-.242.016-.362s.013-.246.019-.367l.094,0h.58c.054,0,.117.02,1.312.016.283,0,.163-.019,1.42-.019.8,0,1.931,0,2.7,0,.589,0,1.672.018,1.327.018,1.086,0,2.228-.02,4.126-.02,1.4,0,.841.016,1.311.016,1.188,0,1.443-.018,1.4-.018,1.292,0,2.043.014,4.047.015,5.681,0,12.007-.047,15.986-.013h2.892c4.087-.031,8.975,0,13.293-.008,5.692-.011,16.421-.006,22.493-.009h1Z" transform="translate(36.016 -32.974)" fill="#e6e1d6"/>
        <path id="Path_4339" data-name="Path 4339" d="M10.282,59.092c0-.062,0-.127,0-.191h0c.022-.166.034-.332.04-.5l.1-.007H11c.054,0,.117.023,1.311.018.283,0,.163-.018,1.421-.018.8,0,1.93,0,2.7,0,.59,0,1.671.017,1.327.017,1.086,0,2.228-.019,4.126-.019,1.4,0,.841.015,1.311.016,1.188,0,1.443-.019,1.4-.019,1.292,0,2.043.016,4.046.017,5.681,0,12.006-.048,15.986-.012q1.441,0,2.893,0c4.087-.029,8.973-.036,13.29-.045,5.692-.009,16.421-.006,22.493-.009H84.3c-.007.119-.014.239-.015.36s-.013.246-.02.37c-.032,0-.064,0-.094,0h-.58c-.055,0-4.936-.02-6.131-.017-.283,0-.163.018-1.421.018-.8,0-1.93,0-2.7,0-.59,0-1.672-.016-1.327-.016-1.086,0-2.228.02-4.126.019-1.4,0-.842-.015-1.311-.015-1.188,0-1.444.018-1.4.018-1.292,0-2.043-.014-4.047-.016-5.682,0-12.006.047-15.986.012l-2.892,0c-4.087.031-8.975,0-13.292.007-5.692.01-11.6,0-17.674.008h-.974s0,0,.006,0Z" transform="translate(36.016 -48.963)" fill="#e6e1d6"/>
        <path id="Path_4340" data-name="Path 4340" d="M84.3,77.37c0,.062,0,.127,0,.191h0c-.022.167-.034.332-.041.5l-.1.006h-.58c-.054,0-4.936-.021-6.131-.017-.283,0-.163.017-1.421.018-.8,0-1.93,0-2.7,0-.59,0-1.671-.016-1.327-.016-1.087,0-2.228.02-4.126.02-1.4,0-.842-.015-1.311-.017-1.188,0-1.444.018-1.4.018-1.292,0-2.043-.015-4.047-.015-5.681,0-12.006.048-15.985.012l-2.893,0c-4.087.031-8.973.037-13.29.046-5.692.01-11.6,0-17.674.009H10.3s0,0,0,0h-.023c.007-.119.014-.239.016-.36s.013-.246.019-.368l.094,0h.58c.054,0,.117.021,1.312.018.283,0,.163-.019,1.42-.019.8,0,1.931,0,2.7,0,.589,0,1.672.016,1.327.016,1.086,0,2.228-.02,4.126-.019,1.4,0,.841.015,1.311.017,1.188,0,1.443-.019,1.4-.019,1.292,0,2.043.015,4.047.015,5.681,0,12.007-.047,15.986-.012l2.892,0c4.087-.031,8.975,0,13.293-.008,5.692-.009,16.421,0,22.493-.008h1Z" transform="translate(36.016 -64.939)" fill="#e6e1d6"/>
        <path id="Path_4341" data-name="Path 4341" d="M10.282,97.168c0-.062,0-.127,0-.192h0c.022-.166.034-.332.04-.5l.1-.006H11c.054,0,.117.02,1.311.016.283,0,.163-.017,1.421-.018.8,0,1.93,0,2.7,0,.59,0,1.671.018,1.327.018,1.086,0,2.228-.02,4.126-.02,1.4,0,.841.016,1.311.018,1.188,0,1.443-.019,1.4-.019,1.292,0,2.043.014,4.046.016,5.681,0,12.006-.049,15.986-.012l2.893,0c4.087-.029,8.973-.038,13.29-.046,5.692-.009,16.421,0,22.493-.008h.974a.011.011,0,0,0-.006,0H84.3c-.007.119-.014.24-.015.36s-.013.246-.02.368l-.094.006h-.58c-.055,0-4.936-.02-6.131-.016-.283,0-.163.018-1.421.019-.8,0-1.93,0-2.7,0-.59,0-1.672-.017-1.327-.018-1.086,0-2.228.02-4.126.02-1.4,0-.842-.015-1.311-.016-1.188,0-1.444.018-1.4.018-1.292,0-2.043-.014-4.047-.014-5.682,0-12.006.046-15.986.012H42.249c-4.087.032-8.975,0-13.292.008-5.692.012-11.6.006-17.674.009h-.059l-.915,0,.006,0Z" transform="translate(36.016 -80.921)" fill="#e6e1d6"/>
        <path id="Path_4342" data-name="Path 4342" d="M84.3,115.446c0,.063,0,.128,0,.191h0c-.022.167-.034.333-.041.5l-.1.006h-.58c-.054,0-4.936-.021-6.131-.017-.283,0-.163.018-1.421.018-.8,0-1.93,0-2.7,0-.59,0-1.671-.016-1.327-.016-1.087,0-2.228.019-4.126.019-1.4,0-.842-.015-1.311-.017-1.188,0-1.444.019-1.4.019-1.292,0-2.043-.014-4.047-.015-5.681,0-12.006.047-15.985.012q-1.441,0-2.893,0c-4.087.028-8.973.037-13.29.044-5.692.012-11.6.007-17.674.01H10.3s0,0,0,0h-.023c.007-.12.014-.24.016-.361s.013-.246.019-.367l.094-.006h.58c.054,0,.117.02,1.312.016.283,0,.163-.017,1.42-.019.8,0,1.931,0,2.7,0,.589,0,1.672.018,1.327.018,1.086,0,2.228-.02,4.126-.02,1.4,0,.841.015,1.311.018,1.188,0,1.443-.019,1.4-.019,1.292,0,2.043.013,4.047.014,5.681,0,12.007-.046,15.986-.011l2.892,0c4.087-.03,8.975,0,13.293-.007,5.692-.01,16.421-.006,22.493-.008h.06l.915,0s0,0-.006,0Z" transform="translate(36.016 -96.897)" fill="#e6e1d6"/>
        <path id="Path_4343" data-name="Path 4343" d="M10.282,135.243c0-.062,0-.127,0-.19h0c.022-.167.034-.333.04-.5l.1,0H11c.054,0,.117.019,1.311.017.283,0,.163-.018,1.421-.019.8,0,1.93,0,2.7,0,.59,0,1.671.016,1.327.016,1.086,0,2.228-.019,4.126-.019,1.4,0,.841.014,1.311.017,1.188,0,1.443-.019,1.4-.019,1.292,0,2.043.014,4.046.015,5.681,0,12.006-.047,15.986-.01l2.893,0c4.087-.03,8.973-.037,13.29-.045,5.692-.011,16.421-.006,22.493-.01h.974s0,0-.006,0H84.3c-.007.119-.014.24-.015.36s-.013.246-.02.368l-.094,0h-.58c-.055,0-4.936-.02-6.131-.016-.283,0-.163.018-1.421.018-.8,0-1.93,0-2.7,0-.59,0-1.672-.015-1.327-.017-1.086,0-2.228.02-4.126.019-1.4,0-.842-.014-1.311-.015-1.188,0-1.444.017-1.4.017-1.292,0-2.043-.015-4.047-.015-5.682,0-12.006.047-15.986.012l-2.892,0c-4.087.031-8.975,0-13.292.006-5.692.012-11.6.006-17.674.01h-1Z" transform="translate(36.016 -112.878)" fill="#e6e1d6"/>
        <path id="Path_4344" data-name="Path 4344" d="M84.3,153.519c0,.065,0,.128,0,.193h0c-.022.165-.034.332-.041.5l-.1.006h-.58c-.054,0-4.936-.02-6.131-.015-.283,0-.163.017-1.421.018-.8,0-1.93,0-2.7,0-.59,0-1.671-.016-1.327-.016-1.087,0-2.228.019-4.126.018-1.4,0-.842-.014-1.311-.015-1.188,0-1.444.018-1.4.018-1.292,0-2.043-.014-4.047-.014-5.681,0-12.006.046-15.985.011l-2.893,0c-4.087.029-8.973.038-13.29.046-5.692.009-11.6.006-17.674.009h-.993c.007-.12.014-.241.016-.36s.013-.247.019-.37l.094,0h.58c.054,0,.117.022,1.312.018.283,0,.163-.018,1.42-.019.8,0,1.931,0,2.7,0,.589,0,1.672.015,1.327.015,1.086,0,2.228-.019,4.126-.018,1.4,0,.841.014,1.311.015,1.188,0,1.443-.018,1.4-.018,1.292,0,2.043.013,4.047.014,5.681,0,12.007-.046,15.986-.01l2.892,0c4.087-.03,8.975,0,13.293-.008,5.692-.012,16.421-.006,22.493-.008h.06l.915,0H84.3Z" transform="translate(36.016 -128.854)" fill="#e6e1d6"/>
        <path id="Path_4345" data-name="Path 4345" d="M10.282,173.327c0-.065,0-.129,0-.193h0c.022-.166.034-.333.04-.5l.1-.006H11c.054,0,.117.02,1.311.015.283,0,.163-.016,1.421-.018.8,0,1.93,0,2.7,0,.59,0,1.671.017,1.327.017,1.086,0,2.228-.02,4.126-.019,1.4,0,.841.014,1.311.017,1.188,0,1.443-.019,1.4-.019,1.292,0,2.043.014,4.046.015,5.681,0,12.006-.046,15.986-.011l2.893,0c4.087-.028,8.973-.036,13.29-.045,5.692-.009,16.421,0,22.493-.009H84.3c-.007.12-.014.241-.015.36s-.013.246-.02.369l-.094,0h-.58c-.055,0-4.936-.021-6.131-.018-.283,0-.163.019-1.421.019-.8,0-1.93,0-2.7,0-.59,0-1.672-.016-1.327-.017-1.086,0-2.228.021-4.126.021-1.4,0-.842-.017-1.311-.018-1.188,0-1.444.018-1.4.018-1.292,0-2.043-.014-4.047-.014-5.682,0-12.006.046-15.986.012l-2.892,0c-4.087.031-8.975,0-13.292.007-5.692.012-11.6.006-17.674.009h-1Z" transform="translate(36.016 -144.843)" fill="#e6e1d6"/>
        <path id="Path_4346" data-name="Path 4346" d="M84.3,191.6c0,.063,0,.127,0,.192h0c-.022.166-.034.332-.041.5l-.1,0h-.58c-.054,0-4.936-.021-6.131-.016-.283,0-.163.017-1.421.019-.8,0-1.93,0-2.7,0-.59,0-1.671-.017-1.327-.017-1.087,0-2.228.019-4.126.018-1.4,0-.842-.014-1.311-.015-1.188,0-1.444.018-1.4.018-1.292,0-2.043-.013-4.047-.014-5.681,0-12.006.046-15.985.011l-2.893,0c-4.087.03-8.973.038-13.29.046-5.692.011-11.6.006-17.674.009h-.993c.007-.12.014-.241.016-.36s.013-.246.019-.368l.094,0h.58c.054,0,.117.02,1.312.015.283,0,.163-.016,1.42-.016.8,0,1.931,0,2.7,0,.589,0,1.672.015,1.327.016,1.086,0,2.228-.02,4.126-.02,1.4,0,.841.015,1.311.015,1.188,0,1.443-.016,1.4-.016,1.292,0,2.043.014,4.047.015,5.681,0,12.007-.046,15.986-.011q1.441,0,2.892,0c4.087-.03,8.975,0,13.293-.007,5.692-.011,16.421,0,22.493-.008h.06l.915,0H84.3Z" transform="translate(36.016 -160.819)" fill="#e6e1d6"/>
        <path id="Path_4347" data-name="Path 4347" d="M10.282,211.4c0-.063,0-.128,0-.192h0c.022-.166.034-.334.04-.5l.1-.007H11c.054,0,.117.021,1.311.018.283,0,.163-.019,1.421-.02.8,0,1.93,0,2.7,0,.59,0,1.671.018,1.327.018,1.086,0,2.228-.02,4.126-.019,1.4,0,.841.015,1.311.016,1.188,0,1.443-.019,1.4-.019,1.292,0,2.043.014,4.046.016,5.681,0,12.006-.048,15.986-.012l2.893,0c4.087-.028,8.973-.038,13.29-.045,5.692-.01,16.421,0,22.493-.009H84.3c-.007.12-.014.24-.015.36s-.013.246-.02.368l-.094,0c-.2,0-.373,0-.58,0-.055,0-4.936-.021-6.131-.018-.283,0-.163.018-1.421.018-.8,0-1.93,0-2.7,0-.59,0-1.672-.015-1.327-.017-1.086,0-2.228.02-4.126.02-1.4,0-.842-.015-1.311-.016-1.188,0-1.444.018-1.4.018-1.292,0-2.043-.014-4.047-.014-5.682,0-12.006.045-15.986.01l-2.892,0c-4.087.029-8.975,0-13.292.007-5.692.011-11.6,0-17.674.008h-.059l-.915,0,.006,0Z" transform="translate(36.016 -176.802)" fill="#e6e1d6"/>
        <path id="Path_4348" data-name="Path 4348" d="M84.3,229.685c0,.064,0,.127,0,.193h0c-.022.166-.034.332-.041.5l-.1.006h-.58c-.054,0-4.936-.02-6.131-.015-.283,0-.163.016-1.421.018-.8,0-1.93,0-2.7,0-.59,0-1.671-.018-1.327-.018-1.087,0-2.228.02-4.126.02-1.4,0-.842-.017-1.311-.018-1.188,0-1.444.02-1.4.02-1.292,0-2.043-.015-4.047-.016-5.681,0-12.006.047-15.985.012l-2.893,0c-4.087.028-8.973.037-13.29.045-5.692.01-11.6,0-17.674.008h-.993c.007-.119.014-.24.016-.36s.013-.245.019-.368l.094,0h.58c.054,0,.117.02,1.312.016.283,0,.163-.017,1.42-.019.8,0,1.931,0,2.7,0,.589,0,1.672.017,1.327.017,1.086,0,2.228-.02,4.126-.02,1.4,0,.841.016,1.311.018,1.188,0,1.443-.018,1.4-.018,1.292,0,2.043.014,4.047.014,5.681,0,12.007-.046,15.986-.012l2.892,0c4.087-.031,8.975,0,13.293-.007,5.692-.012,16.421-.007,22.493-.01h1Z" transform="translate(36.016 -192.783)" fill="#e6e1d6"/>
        <path id="Path_4349" data-name="Path 4349" d="M10.282,249.485c0-.063,0-.127,0-.192h0c.022-.167.034-.332.04-.5l.1-.006H11c.054,0,.117.02,1.311.017.283,0,.163-.018,1.421-.019.8,0,1.93,0,2.7,0,.59,0,1.671.015,1.327.015,1.086,0,2.228-.019,4.126-.018,1.4,0,.841.014,1.311.016,1.188,0,1.443-.019,1.4-.019,1.292,0,2.043.014,4.046.014,5.681,0,12.006-.047,15.986-.011l2.893,0c4.087-.03,8.973-.038,13.29-.045,5.692-.011,16.421-.007,22.493-.009H84.3c-.007.118-.014.24-.015.359s-.013.247-.02.37l-.094,0h-.58c-.055,0-4.936-.02-6.131-.016-.283,0-.163.017-1.421.019-.8,0-1.93,0-2.7,0-.59,0-1.672-.016-1.327-.016-1.086,0-2.228.019-4.126.019-1.4,0-.842-.015-1.311-.016-1.188,0-1.444.017-1.4.017-1.292,0-2.043-.014-4.047-.014-5.682,0-12.006.046-15.986.011l-2.892,0c-4.087.031-8.975,0-13.292.008-5.692.009-11.6,0-17.674.007h-1Z" transform="translate(36.016 -208.766)" fill="#e6e1d6"/>
        <path id="Path_4350" data-name="Path 4350" d="M10.282,268.52c0-.061,0-.127,0-.191h0c.022-.166.034-.332.04-.5l.1-.006H11c.054,0,.117.021,1.311.016.283,0,.163-.016,1.421-.018.8,0,1.93,0,2.7,0,.59,0,1.671.017,1.327.017,1.086,0,2.228-.02,4.126-.02,1.4,0,.841.016,1.311.017,1.188,0,1.443-.019,1.4-.019,1.292,0,2.043.016,4.046.016,5.681,0,12.006-.048,15.986-.012l2.893,0c4.087-.028,8.973-.036,13.29-.045,5.692-.01,16.421-.006,22.493-.008h.06l.914,0-.006,0H84.3c-.007.118-.014.239-.015.359s-.013.247-.02.368l-.094.006h-.58c-.055,0-4.936-.02-6.131-.018-.283,0-.163.019-1.421.019-.8,0-1.93,0-2.7,0-.59,0-1.672-.015-1.327-.017-1.086,0-2.228.02-4.126.019-1.4,0-.842-.015-1.311-.015-1.188,0-1.444.018-1.4.018-1.292,0-2.043-.016-4.047-.016-5.682,0-12.006.047-15.986.012l-2.892,0c-4.087.031-8.975,0-13.292.007-5.692.009-11.6.006-17.674.008h-1Z" transform="translate(36.016 -224.743)" fill="#e6e1d6"/>
        <path id="Path_4351" data-name="Path 4351" d="M84.3,286.8c0,.063,0,.127,0,.19h0c-.022.167-.034.332-.041.5-.034,0-.068,0-.1.006h-.58c-.054,0-4.936-.02-6.131-.018-.283,0-.163.019-1.421.02-.8,0-1.93,0-2.7,0-.59,0-1.671-.018-1.327-.018-1.087,0-2.228.02-4.126.019-1.4,0-.842-.014-1.311-.017-1.188,0-1.444.019-1.4.019-1.292,0-2.043-.014-4.047-.014-5.681,0-12.006.047-15.985.01q-1.441,0-2.893,0c-4.087.03-8.973.036-13.29.045-5.692.012-11.6.006-17.674.011h-.993c.007-.12.014-.24.016-.361s.013-.246.019-.367l.094-.006h.58c.054,0,.117.021,1.312.016.283,0,.163-.018,1.42-.018.8,0,1.931,0,2.7,0,.589,0,1.672.016,1.327.016,1.086,0,2.228-.019,4.126-.019,1.4,0,.841.017,1.311.018,1.188,0,1.443-.02,1.4-.02,1.292,0,2.043.016,4.047.016,5.681,0,12.007-.047,15.986-.013l2.892,0c4.087-.031,8.975,0,13.293-.008,5.692-.009,16.421,0,22.493-.008h1Z" transform="translate(36.016 -240.724)" fill="#e6e1d6"/>
        <path id="Path_4352" data-name="Path 4352" d="M10.282,306.6c0-.063,0-.127,0-.191h0c.022-.167.034-.332.04-.5.035,0,.069,0,.1-.006H11c.054,0,.117.02,1.311.017.283,0,.163-.019,1.421-.019.8,0,1.93,0,2.7,0,.59,0,1.671.018,1.327.018,1.086,0,2.228-.02,4.126-.02,1.4,0,.841.015,1.311.016,1.188,0,1.443-.018,1.4-.018,1.292,0,2.043.014,4.046.016,5.681,0,12.006-.047,15.986-.012q1.441,0,2.893,0c4.087-.029,8.973-.036,13.29-.045,5.692-.012,16.421-.006,22.493-.009h.06l.914,0s0,0-.006,0H84.3c-.007.119-.014.24-.015.36s-.013.246-.02.369l-.094,0h-.58c-.055,0-4.936-.02-6.131-.017-.283,0-.163.019-1.421.02-.8,0-1.93,0-2.7,0-.59,0-1.672-.015-1.327-.015-1.086,0-2.228.019-4.126.018-1.4,0-.842-.015-1.311-.016-1.188,0-1.444.019-1.4.019-1.292,0-2.043-.015-4.047-.017-5.682,0-12.006.047-15.986.013l-2.892,0c-4.087.029-8.975,0-13.292.007-5.692.009-11.6,0-17.674.008h-1Z" transform="translate(36.016 -256.699)" fill="#e6e1d6"/>
      </g>
    </g>
  </g>
</svg>
